<?xml version="1.0" encoding="utf-8"?>
<!-- Generator: Adobe Illustrator 18.0.0, SVG Export Plug-In . SVG Version: 6.00 Build 0)  -->
<!DOCTYPE svg PUBLIC "-//W3C//DTD SVG 1.1//EN" "http://www.w3.org/Graphics/SVG/1.1/DTD/svg11.dtd">
<svg version="1.1" xmlns="http://www.w3.org/2000/svg" xmlns:xlink="http://www.w3.org/1999/xlink" x="0px" y="0px"
	 viewBox="149.3 10 229.3 228" enable-background="new 149.3 10 229.3 228" xml:space="preserve">
<g id="Calque_5">
	<g>
		<g>
			<path fill="#5E4089" d="M363,236H163.7c-6.6,0-12-5.4-12-12V24.7c0-6.6,5.4-12,12-12H363c6.6,0,12,5.4,12,12V224
				C375,230.6,369.6,236,363,236z"/>
		</g>
		<g>
			<path fill="none" stroke="#FFFFFF" stroke-miterlimit="10" d="M363,236H163.7c-6.6,0-12-5.4-12-12V24.7c0-6.6,5.4-12,12-12H363
				c6.6,0,12,5.4,12,12V224C375,230.6,369.6,236,363,236z"/>
		</g>
	</g>
	<g>
		<g>
			<g>
				<path fill="#FFFFFF" d="M323.9,135.2c-5.3-5.3-12.9-9-22.8-11.1c7.7-2.8,13.4-6.6,17.2-11.2c3.8-4.6,5.7-9.6,5.7-14.8
					c0-5.6-2.1-11-6.4-16.2c-4.3-5.2-10.2-9-17.8-11.5c-7.6-2.5-17.6-3.7-30.1-3.7h-61.4v122.8h62.4c10.4,0,19.2-0.7,26.4-2.1
					c7.2-1.4,13.2-3.4,17.9-6.1c4.8-2.7,8.8-6.5,12-11.4s4.9-10.3,4.9-16C331.9,146.7,329.3,140.5,323.9,135.2z M229.9,81.1h32.7
					c11.8,0,20.1,0.6,24.9,1.7c4.8,1.1,8.6,3.3,11.2,6.4c2.6,3.1,3.9,6.7,3.9,10.8c0,4.3-1.4,7.9-4.2,10.7
					c-2.8,2.8-6.9,4.9-12.5,6.1c-4.2,1-11.1,1.4-20.7,1.4h-35.4V81.1z M306.2,164.2c-2.2,3-4.9,5.3-8.3,6.8
					c-3.4,1.6-7.5,2.7-12.5,3.4c-2.8,0.4-7.7,0.6-14.7,0.6h-40.8v-42.2h37.9c10.4,0,18.4,0.7,24,2.1c5.5,1.4,9.9,3.7,13,7.1
					c3.1,3.4,4.7,7.4,4.7,11.9C309.5,157.7,308.4,161.2,306.2,164.2z"/>
			</g>
		</g>
	</g>
</g>
<g id="Calque_4" display="none">
	<g display="inline">
		<path fill="#60408B" d="M371,77.8c0,10.8,0,21.5,0,32.3c-0.4,0.4-0.7,0.8-1.2,1c-3.1,1.5-6.4,2.6-7.4,6.5
			c-0.4,1.6-2.2,2.1-3.9,2.2c-2,0-3,1.1-3.2,3.1c-0.5,3.5-2.7,5.7-5.9,6.8c-1.4,0.5-2.2,1-2.7,2.5c-0.7,2.6-2.2,4.6-5.3,4.6
			c-1.9,0-2.8,1.1-3,3c-0.5,3.6-2.8,5.8-6.1,6.9c-1.5,0.5-2.1,1.2-2.5,2.6c-0.7,2.5-2.2,4.3-5.2,4.4c-3,0.2-4.4,1.7-4.7,4.7
			c-0.2,3-2,4.4-4.5,5.1c-1.5,0.4-2.2,1.1-2.6,2.6c-0.8,3-2.4,4.1-5.4,4.4c-3.4,0.3-4.3,1-4.4,4.3c-0.1,3.2-1.8,4.8-4.6,5.6
			c-1.3,0.4-2.1,1-2.5,2.4c-0.7,2.6-2.2,4.6-5.3,4.7c-1.9,0-2.8,1-3.1,2.9c-0.5,3.7-2.8,5.9-6.3,7c-1.2,0.4-1.9,1-2.2,2.3
			c-0.9,3.2-3,5.3-6.2,6.2c-1.3,0.4-1.9,1-2.2,2.3c-0.9,3.2-3,5.3-6.2,6.2c-1.3,0.4-1.9,1-2.2,2.3c-1.1,3.5-3.3,5.8-7,6.3
			c-2.1,0.3-2.9,1.4-2.9,3.4c0,1.4,0.1,2.9-1.3,3.9c-9.3,0-18.7,0-28,0c-1.8-2.5-0.9-4.9,2.1-5.3c0.9-0.1,1.8-0.1,2.6-0.2
			c0.6,0,1.5,0,1.7-0.5c1-2.7,4.3-3.2,5.4-5.8c0.3-0.8,1-1.5,1.9-1.8c1.2-0.4,1.9-1.2,2.3-2.3c0.1-0.3-0.1,0,0.1-0.2
			c2.4-1.6,3.8-4.2,6.1-5.9c1.3-1,1.8-1.9,1.9-3.4c0.3-4.6,0.8-5.2,5.3-5.4c1.6-0.1,3-0.3,3.5-2.1c0.1-0.3,0.3-0.7,0.6-0.8
			c2.9-1.1,4.2-4,6.4-6c2-1.8,4.6-3.4,5.8-6.1c0.1-0.3,0.4-0.7,0.7-0.8c2.8-1.2,3.5-4.2,5.6-6c2.5-0.6,4.7-2.8,7.6-2
			c1.2,2.1,3.2,1.8,5,1.6c0.9-0.1,0.9-0.6,0.5-1.3c-0.4-1.1-1.9-0.8-2.4-1.8c-0.3-0.7,0-1.3,0.1-1.9c0.3-0.7,0.8-1.1,1.5-1.4
			c2.6-1.1,5-2.5,7.4-4.1c0.5-0.4,1.1-0.5,1.8-0.4c0.3,0.1,0.5,0.4,0.7,0.5c-0.2-0.3-0.4-0.5-0.5-0.9c-0.1-1.6,1.3-2.4,2.1-3.5
			c1.6-2.3,2.6-4.7,3-7.4c0.2-1,0.5-2.1,1.4-2.7c0.5-0.3,0.6-0.8,0.6-1.3c0.4-1.9,0.8-3.8-0.3-5.6c-0.2-0.2-0.3-0.4-0.3-0.7
			c-0.1-0.2-0.1-0.5-0.2-0.7c0-0.6,0-1.3-0.3-1.9c-0.1-0.6-0.3-1.1-0.6-1.6c-0.1-0.2-0.1-0.5-0.1-0.8c-0.2-1-0.8-2-0.1-3.1
			c0.2-0.2,0.4-0.4,0.7-0.4c3.9,1.1,5.4,3.3,5,7.2c-0.1,1.6-0.3,3.1-0.3,5.2c0.5-2.1,0-3.8,0.4-5.4c0.5-2.1,0.3-4.4,2.3-6.2
			c1.2-1,0.5-3,0.6-4.6c0.1-4.6,0.4-4.9,4.9-5.2c3-0.2,3.4-0.6,3.5-3.7c0.2-4.3,0.5-4.6,4.8-4.8c3.2-0.2,3.5-0.5,3.7-3.8
			c0.2-4.1,0.6-4.5,4.6-4.7c3.4-0.2,3.7-0.5,3.8-3.9c0.2-3.9,0.6-4.4,4.5-4.5c3.6-0.2,3.8-0.4,4-4c0.2-3.9,0.6-4.2,4.6-4.4
			c3.4-0.2,3.7-0.5,3.9-3.9c0.2-4.1,0.5-4.4,4.7-4.6c3.1-0.2,3.5-0.5,3.8-3.2c0.1-1.8-0.5-4.2,1.7-4.8
			C365.6,76.3,368.6,75.7,371,77.8z"/>
		<path fill="#5E4089" d="M250.9,230.2c0-1.7,0-3.4,0-5c0-2.1,1.1-3.2,3.2-3.4c4.2-0.4,6.2-2.3,6.8-6.6c0.2-1.3,0.8-1.7,2.1-1.9
			c3.8-0.5,5.9-2.6,6.4-6.5c0.2-1.5,0.8-1.9,2.2-2c3.6-0.4,5.9-2.7,6.3-6.3c0.2-1.6,0.9-2,2.3-2.2c3.3-0.3,6-2.9,6.1-6.2
			c0.1-2.6,1.3-3.8,3.9-3.9c2.9-0.1,4.3-1.4,4.5-4.4c0.1-1.8,0.7-2.4,2.5-2.6c3.1-0.2,4.3-1.7,4.4-4.8c0.1-3.8,1.4-5.1,5.1-5.2
			c3.3-0.1,4.7-1.2,4.9-4.5c0.1-1.6,0.7-2.3,2.4-2.4c3.3-0.3,4.3-1.5,4.6-4.9c0.2-2.6,2.5-4.9,5.1-5.1c3.5-0.3,4.5-1.2,4.9-4.8
			c0.2-1.4,0.7-1.9,2.1-2.1c3.7-0.4,6.1-2.8,6.3-6.5c0.2-2.4,1.4-3.4,3.7-3.5c3.1-0.1,4.5-1.3,4.7-4.4c0.1-1.6,0.6-2.3,2.3-2.5
			c3.5-0.3,6-2.9,6.2-6.4c0.2-2.5,1.4-3.6,3.9-3.6c2.9-0.1,4.3-1.4,4.5-4.3c0.1-1.7,0.6-2.6,2.5-2.6c2.1,0.1,3.8-2.1,6-1.6
			c0,6.5,0,13.1,0,19.6c-0.8,1.1-2.1,1.2-3.3,1.3c-1.8,0-2.6,0.9-2.9,2.7c-0.5,4-1.7,5.2-5.6,5.7c-1.8,0.2-2.6,1-2.8,2.8
			c-0.5,4-1.7,5.1-5.7,5.6c-1.8,0.2-2.6,1.1-2.8,2.9c-0.5,3.9-1.7,5.1-5.7,5.6c-1.7,0.2-2.5,0.9-2.7,2.6c-0.6,4.3-1.6,5.3-5.8,5.8
			c-1.8,0.2-2.5,1.2-2.7,2.9c-0.4,3.7-1.8,5.1-5.5,5.5c-1.9,0.2-2.8,1-3,3c-0.4,3.7-1.8,5.1-5.5,5.5c-1.9,0.2-2.8,1.1-3,3
			c-0.4,3.7-1.8,5.1-5.5,5.5c-1.9,0.2-2.7,1.1-2.9,3c-0.4,3.7-1.8,5-5.6,5.5c-1.8,0.2-2.7,0.9-2.9,2.8c-0.5,4-1.7,5.2-5.6,5.7
			c-2,0.2-2.7,1.2-2.9,3.1c-0.4,3.5-1.8,5-5.4,5.4c-2,0.2-2.9,1.1-3.1,3.1c-0.3,3.5-1.8,5-5.4,5.3c-2.1,0.2-3.1,1.1-3,3.2
			c0,1.2-0.2,2.3-1.2,3.1C264,230.2,257.4,230.2,250.9,230.2z"/>
		<path fill="#7044A5" d="M159.4,99c0-8.5,0-16.9,0-25.4c2.8-2.6,5.3-5.6,8.2-8.1c2.2-1.9,3.5-4.8,6.4-5.9c0.7-0.3,1.1-0.9,1.3-1.6
			c0.4-1,1.1-1.9,2.1-2.3c1.2-0.4,2-1.1,2.3-2.3c0.1-0.3,0.3-0.7,0.6-0.8c3-1,3.6-4.7,6.5-5.7c0.7-0.2,1-1,1.2-1.6
			c0.4-1,1.1-1.8,2.2-2.2c1.1-0.4,1.8-1,2.1-2.2c0.1-0.3,0.2-0.6,0.4-0.7c2.9-1.2,3.7-4.8,6.7-6c0.7-0.3,1-0.9,1.3-1.6
			c0.4-1.1,1.2-2,2.3-2.4c1-0.4,1.7-1,1.9-2c0.1-0.3,0.2-0.8,0.5-0.9c2.9-1.2,3.7-4.6,6.5-5.8c1.3-0.6,1.4-2.2,2.5-3
			c9.9,0,19.8,0,29.6,0c1.2,2.3,0.9,3.4-1.1,4.9c-2.5,2-4.6,4.3-6.8,6.7c-1.8,2-3.9,3.7-5.7,5.7c-1,1.1-2.3,1.8-3,3.2
			c-0.7,1.4-2.2,1.6-3.7,1.6c-3.7,0-4.4,0.7-4.3,4.3c0,2-0.9,3-2.4,4.3c-2.2,1.8-4.2,3.9-6,6c-1.2,1.4-2.2,2.3-4.1,2.3
			c-3.8,0-4.4,0.6-4.4,4.5c0,1.8-0.6,3.1-2.2,3.8c-0.9,0.4-1.5,1.1-2.1,1.9c-1.4,2.4-4.3,3.5-5.7,6c-0.5,0.9-1.8,0.6-2.7,0.5
			c-2-0.1-3.3,0.7-4.6,2.4c-1.7,2.1-3.7,4.1-5.8,5.9c-1.6,1.3-2.4,2.5-2.3,4.4c0.2,2.1-1,3.1-2.4,4.6c-2.4,2.6-4.8,4.6-8.6,4.4
			c-1-0.1-1.5,1.3-2.1,2.2C162.8,100,161.6,100.1,159.4,99z"/>
		<path fill="#644192" d="M371,26.5c0,8.5,0,16.9,0,25.4c-1,1.3-2.4,1.2-3.8,1.3c-3.2,0.2-3.6,0.6-3.9,3.7c-0.3,3.8-0.9,4.4-4.8,4.8
			c-2.9,0.2-3.3,0.7-3.6,3.5c-0.4,4.1-0.9,4.6-4.9,5c-2.8,0.2-3.3,0.7-3.6,3.5c-0.4,4.1-0.9,4.6-4.9,5c-2.8,0.2-3.3,0.7-3.6,3.5
			c-0.4,4.1-0.9,4.6-4.9,5c-2.8,0.3-3.3,0.7-3.5,3.5c-0.4,4.1-0.8,4.6-4.9,4.9c-2.8,0.3-3.3,0.7-3.5,3.5c-0.4,4.1-0.9,4.6-5,4.9
			c-2.9,0.2-3.3,0.6-3.5,3.5c-0.3,4.1-1,4.8-5.2,5c-1.3,0.1-2.6,0.1-3.9,0.6c-1.1,0.6-2,1.4-2,2.8c0,0.9-0.5,1.9-1.2,2.2
			c-2.5,1-4.8,2.8-7.8,2.1c-0.2-0.1-0.4-0.3-0.5-0.5c0.3-2,0.9-3.9,3.1-4.5c2.2-0.6,2.6-2,2.2-3.9c0-0.8-0.5-1.5-0.6-2.3
			c0-0.7,0.2-1.3,0.8-1.8c2.6-0.5,2-2.7,2.5-4.4c0.7-2.5,0.9-5,0-7.6c-0.8-1-0.3-2,0-3c0.9-3,1.7-6.1,5.2-7.3c0.7-0.2,1-0.9,1.2-1.6
			c0.3-0.9,0.8-1.7,1.7-2c1.5-0.5,2.4-1.3,2.7-2.9c0.1-0.3-0.2-0.1,0.1-0.2c2.5-1.3,3.8-3.9,6-5.5c1-0.8,2-1.3,2.3-2.6
			c0.1-0.5,0.4-1.1,0.9-1.2c1.9-0.6,2.6-2.8,3.9-3.4c2.8-1.5,3.3-5.2,6.6-6c0.7-0.2,1-0.9,1.2-1.6c0.3-0.9,0.8-1.7,1.7-1.9
			c1.5-0.5,2.4-1.4,2.7-2.9c0.1-0.3-0.2-0.1,0.1-0.2c2.5-1.3,3.8-3.9,6-5.5c0.9-0.7,1.9-1.1,2.2-2.4c0.1-0.6,0.4-1.3,1-1.5
			c1.9-0.6,2.6-2.8,3.9-3.4c2.8-1.5,3.3-5.2,6.5-6c0.6-0.1,0.9-0.8,1.1-1.4c0.2-0.5,0.3-1.2,0.7-1.4c2.3-1,3.4-3,4.8-4.9
			c1.9-0.7,3.9-0.7,5.9-0.9C369.5,25.3,370.4,25.7,371,26.5z"/>
		<path fill="#684298" d="M159.4,204.8c0-7.1,0-14.1,0-21.2c2.8-2.6,5.4-5.6,8.2-8.1c2.2-1.9,3.5-4.8,6.4-5.9c0.7-0.3,1-0.9,1.3-1.6
			c0.4-1,1.1-1.8,2.1-2.2c1.1-0.4,1.8-1,2.2-2.1c0.1-0.3,0.2-0.6,0.4-0.7c2.8-1.3,3.8-4.7,6.7-6c0.7-0.3,1.1-0.9,1.3-1.6
			c0.4-1,1.1-1.9,2.1-2.3c1.2-0.5,1.9-1.2,2.3-2.4c0.1-0.3,0.3-0.7,0.6-0.8c2.9-1.1,4.2-4,6.4-6c2-1.8,4.6-3.4,5.8-6.1
			c0.1-0.2,0.3-0.5,0.5-0.6c2.9-1.1,3.6-4.7,6.5-5.8c1.2-0.5,1-2.3,2-2.7c2.9-1.2,3.6-4.8,6.5-5.8c0.2-0.1,0.5-0.3,0.6-0.5
			c0.8-2.7,3-3.5,5.4-4c1.7-0.4,1.9-1.5,1.9-3c0-5.6,0-11.1,0-16.7c0-1-0.1-2,0.3-2.9c0.4-0.9,0.9-1.9,2-0.6
			c0.6,4.7,0.2,9.5,0.2,14.2c0.1,3.6,0.1,7.2,0,10.8c-1.1,2.7-1.3,5.5-0.6,8.3c0.2,1,0.1,2.1,0.1,3.2c0,4.7-0.3,9.5,0,14.2
			c0,0.4,0,0.9,0,1.3c0,1.2-0.2,2.6-1.7,2.5c-1.5-0.1-1.4-1.6-1.3-2.8c0.2-1.5,0.4-3,0.3-4.3c0,3.5,0,3.5-3.6,4.2
			c-2.7,0.5-3.9,1.6-4.3,4.2c-0.7,3.6-0.7,3.6-4.1,4.2c-2.8,0.5-3.9,1.6-4.4,4.5c-0.5,3.4-0.6,3.4-3.8,3.9c-3.1,0.5-4.3,1.6-4.6,4.8
			c-0.2,2.3-1.2,3.4-3.6,3.7c-3.4,0.3-4.5,1.5-4.9,4.8c-0.2,2.3-1.2,3.4-3.6,3.7c-3.4,0.3-4.4,1.5-4.9,4.8c-0.4,3-0.9,3.4-3.8,3.6
			c-4.3,0.3-4.3,0.3-4.7,4.8c-0.2,2.8-0.7,3.3-3.4,3.7c-3.5,0.5-4.5,1.5-5,5c-0.4,2.7-1,3.3-3.7,3.4
			C163.3,206,161,206.7,159.4,204.8z"/>
		<path fill="#674195" d="M159.4,204.8c2,0,4.1,0,6.1,0c1.7,0,2.3-0.6,2.4-2.3c0.3-4.6,1.5-5.8,6.1-6.1c1.7-0.1,2.3-0.8,2.3-2.4
			c0.3-5.8,0.3-5.8,6-6c1.6-0.1,2.3-0.6,2.5-2.3c0.3-4.7,1.5-5.9,6.1-6.2c1.7-0.1,2.3-0.7,2.4-2.4c0.3-4.6,1.5-5.8,6.2-6.1
			c1.7-0.1,2.2-0.9,2.3-2.5c0.3-4.4,1.6-5.8,6-6c1.8-0.1,2.4-0.8,2.5-2.5c0.2-4.2,1.7-5.7,5.8-5.9c1.9-0.1,2.6-0.7,2.7-2.6
			c0.2-4.2,1.7-5.7,5.8-5.8c2-0.1,2.7-0.8,2.6-2.7c0-1.5-0.3-3.1,0.6-5.1c1,4.1,1,7.6,1.3,11.2c1-1.4,0.9-3,0.7-4.5
			c-0.4-3.6-0.1-7.2,0-10.8c0.1-3.4-0.3-6.8-0.4-10.3c0-1-0.2-2.2,1-2.7c1.4,1.5,0.6,3.4,0.8,5c0.1,1,0,1.9,0,2.9
			c0,6.9,0,13.7,0,20.6c-0.8,3.7-0.5,7.5-0.5,11.3c0,1.4-0.7,2.4-1.4,3.5c-1.5,2.6-4.5,3.9-5.5,6.7c-0.3,0.7-0.9,1.2-1.6,1.2
			c-4.1-0.3-4.9,3.1-6.2,5.7c-0.7,1.4-1.2,2.7-2.9,3.1c-0.3,0.1-0.1-0.2-0.2,0.1c-1.2,2.7-4.1,3.7-5.7,6.1c-0.1,0.2-0.1,0.6-0.3,0.7
			c-2.9,1-3.6,4.5-6.4,5.7c-0.7,0.3-1.3,0.7-1.5,1.4c-0.4,1.6-1.5,2.5-3,3c-0.6,0.2-1.1,0.7-1.2,1.3c-0.4,1.5-1.3,2.5-2.8,2.9
			c-0.8,0.2-1.3,0.9-1.6,1.7c-0.4,1.3-1.2,2.1-2.5,2.5c-0.2,0-0.4,0.1-0.5,0.2c-1.1,2.7-4.2,3.7-5.6,6.2c-0.1,0.2-0.1,0.6-0.3,0.7
			c-2.9,1-3.7,4.5-6.4,5.7c-0.5,0.2-1.1,0.5-1.2,1c-0.9,3.6-3.7,3.2-6.4,3c-2.7-0.1-5.6,1-8-1.1
			C159.4,216.1,159.4,210.4,159.4,204.8z"/>
		<path fill="#644192" d="M167.8,221.7c2.3,0.1,3.7,0,4.7-3c0.6-1.7,4.1-2.5,4.6-5.3c2.3,0.1,2.6-1.7,3.8-3.2c1.4-1.7,4-2.5,4.6-5.2
			c0.1-0.3,1.9,0,2.2-0.4c1.2-2.3,2.5-4.4,5.2-5c-0.1-2.4,1.9-2.5,3.2-3.7c1.7-1.6,3.4-3.4,5.1-5.1c1.1-1.1,1-3.3,3.4-3.1
			c0.6,0,0.9-0.5,1-1c0.1-0.3,0.1-0.7,0.1-1c0-2.8,3-1.3,3.9-2.7c0.8-1.3-0.1-3.8,2.8-3.6c0.5,0,1.4-0.1,1.4-0.5
			c0.1-2.2,2.2-3.6,2.5-5.6c0.3-1.8,1.1-2.4,2.7-2.3c2.1,0.2,2.8-0.7,4.2-2.6c1.3-1.9,2.8-4.7,5.3-5.7c1.1-0.5,1.1-1.3,1.1-2.1
			c0-2.6,0-5.1,0-7.7c0-1-0.1-2.1,0.5-3.1c1.1,0.8,0.7,2.1,0.8,3.2c0.2,5.5-0.3,11.1,0.3,16.6c0.1,0.3,0.1,0.6,0.2,0.8
			c0.1,0.7-0.2,1.4-0.5,1.9c-0.7,1.3-0.3,2.1,1,2.6c1.2,0.6,2.6,0.5,3.9,0.5c0.4,0,0.9,0,1.3,0.1c2.7,0.6,5.4,0.3,8,0.4
			c0.8,0,1.6-0.1,2.3,0.2c0.4,0.2,0.8,0.4,0.7,0.9c-0.1,0.4-0.3,0.6-0.7,0.7c-1,0.4-2.1,0.2-3.1,0.2c-3.5,0.2-7.2-0.7-10.4,1.4
			c1.5,1.5,2.2,5.3,1.2,7.1c-0.7,1.2-1.8,1.3-2.9,1.4c-4.3,0.4-4.7,0.8-5.1,5.1c-0.2,2.3-1.3,3.2-3.5,3.4c-4.1,0.3-4.6,0.8-5,4.9
			c-0.3,2.7-0.8,3.3-3.6,3.5c-4,0.4-4.5,0.8-4.9,5c-0.2,2.3-1.2,3.3-3.5,3.5c-4.2,0.3-4.6,0.8-5,4.9c-0.3,2.8-0.8,3.3-3.6,3.6
			c-4.1,0.4-4.6,1-4.9,5c-0.1,1.3-0.1,2.5-1.3,3.3c-8.3,0-16.6,0-24.9,0C165.8,228.1,166,224.2,167.8,221.7z"/>
		<path fill="#674195" d="M362.6,27c0.1,2.3,0,3.7-3,4.8c-1.7,0.6-2.5,4.1-5.3,4.6c0.1,2.3-1.7,2.6-3.2,3.8c-1.7,1.4-2.5,4-5.2,4.6
			c-0.3,0.1,0,1.9-0.4,2.2c-2.3,1.2-4.4,2.5-5,5.2c-2.4-0.1-2.5,2-3.7,3.2c-1.7,1.7-3.4,3.5-5.1,5.1c-1.2,1.1-3.2,1.1-3.1,3.5
			c0,1-1,1.1-1.8,1.1c-1.3,0-2.2,0.6-2.2,2c0,1.5-0.7,2.3-2.3,2.2c-0.3,0-1,0.1-1,0.2c0.1,3.8-4.9,3.4-5.3,6.7
			c-0.1,0.9-0.6,1.5-1.5,1.5c-1.8-0.1-2.8,0.6-2.7,2.6c0.1,1-0.6,1.6-1.6,1.7c-0.3,0-0.6,0-0.8,0.1c-2.3,1-2,5.3-5.7,4.7
			c-0.9,2.6-3.2,4.6-3.1,7.7c0,0.1,0.1,0.2,0.1,0.2c-0.3,0.4-0.7,0.5-1.2,0.4c-2-1.1-1.3-3.5-2.2-5.1c-0.1-0.9-0.2-1.8-1.1-2.3
			c-0.3-0.1-0.7-0.2-1-0.4c-0.2-0.1-0.4-0.3-0.6-0.5c-1-2.2-2.3-4-4.6-5.1c-1.3-0.6-3.1-1.3-2.7-3.4c1-1.4,2.6-1.5,4-1.7
			c1.6-0.2,2.2-1,2.4-2.6c0.3-2.6,1.4-4.7,4.1-5.6c2.3-0.8,3.9-2.4,4.7-4.7c0.9-2.6,2.8-3.8,5.3-4.1c1.8-0.2,2.6-1,2.9-2.8
			c0.3-2.5,1.5-4.4,4.1-5.3c2.3-0.8,3.9-2.4,4.7-4.7c0.9-2.6,2.8-3.8,5.3-4.1c2-0.3,2.8-1.3,2.7-3.2c0-0.7,0-1.4,0.1-2.1
			c0-2.2,1.2-3.2,3.3-3.3c0.8,0,1.6-0.1,2.4-0.1c1.7,0,2.6-0.8,2.8-2.5c0.4-3.4,2.3-5.5,5.8-5.9c2-0.2,2.7-1.3,2.7-3.2
			c0-1.5-0.2-3,1.2-4.1c5.6,0,11.3,0,16.9,0C364.3,20.9,364.3,24.7,362.6,27z"/>
		<path fill="#5D3F86" d="M290.6,230.2c-5.1,0-10.2,0-15.3,0c-1.4-1.6-0.7-2.8,0.8-3.6c1.2-0.6,2-1.3,2.4-2.6
			c0.3-0.8,0.9-1.4,1.6-1.6c1.4-0.4,2.2-1.3,2.6-2.7c0-0.2,0.1-0.4,0.3-0.4c3-1,3.6-4.6,6.5-5.7c0.7-0.3,1.1-0.8,1.4-1.5
			c0.2-0.4,0.2-1,0.6-1.2c3-1,3.6-4.7,6.5-5.8c0.8-0.3,1.2-1,1.5-1.7c0.4-1.2,1.2-1.9,2.3-2.3c0.8-0.3,1.5-0.7,1.7-1.5
			c0.5-1.5,1.4-2.4,2.9-2.9c0.7-0.2,1.2-0.8,1.4-1.5c0.4-1.4,1.3-2.3,2.7-2.7c0.8-0.3,1.3-0.8,1.6-1.6c0.2-0.4,0.2-1,0.6-1.2
			c3-1,3.6-4.7,6.5-5.8c0.8-0.3,1.2-0.9,1.5-1.7c0.4-1.2,1.2-1.9,2.3-2.3c0.7-0.2,1.4-0.6,1.6-1.3c0.5-1.6,1.6-2.7,3.2-3.2
			c0.8-0.3,1.1-1,1.4-1.8c0.3-0.9,0.9-1.6,1.7-1.9c1.4-0.5,2.3-1.3,2.7-2.7c0-0.2,0.1-0.4,0.3-0.4c2.9-1,3.6-4.6,6.5-5.7
			c0.8-0.3,1.2-0.9,1.5-1.7c0.4-1.2,1.2-1.9,2.3-2.3c0.2-0.1,0.6-0.1,0.7-0.3c1-2.9,4.4-3.6,5.6-6.2c0.4-0.7,0.9-1.4,1.6-1.7
			c1.4-0.4,2.3-1.3,2.7-2.7c0-0.2,0.1-0.4,0.3-0.4c3-1,3.6-4.6,6.5-5.8c0.7-0.3,1.2-0.8,1.4-1.5c0.4-1.4,1.3-2.2,2.7-2.7
			c1-0.3,1.4-1.3,1.8-2.1c0.9-1.5,2-2.2,3.6-0.8c0,6.2,0,12.3,0,18.5c-1.3,1.4-2.9,2-4.7,2.3c-1.5,0.3-2.2,1.1-2.6,2.6
			c-0.9,3-1,6.1-1,9.1c-0.1,3.5-0.7,4.1-4.3,4.2c-3,0.1-6,0.1-8.9,1c-1.5,0.5-2.5,1.1-2.7,2.7c-0.4,2.6-1.6,4.6-4.3,5.5
			c-2.2,0.7-3.8,2.3-4.5,4.5c-0.9,2.8-3.1,3.9-5.8,4.3c-2.7,0.4-3.2,1-3.3,3.8c-0.1,3,0.1,6-0.1,9c-0.1,1.6-0.7,3-2.4,2.9
			c-4.9-0.2-9.6,1.4-14.4,1.1c-2.2,0-3.2,1.1-3.2,3.3c0,2.5-0.2,4.8-3.1,5.6c-0.7,0.2-1,0.9-1.2,1.6c-0.3,0.8-0.7,1.5-1.4,1.8
			c-1.6,0.6-2.5,1.6-3.2,3.2c-0.7,1.6-2.4,1.5-3.9,1.6c-3.7,0.2-3.8,0.4-4,3.9C291.8,228.1,291.7,229.4,290.6,230.2z"/>
		<path fill="#69429A" d="M230.3,94.7c-0.7,1-0.5,2.2-0.5,3.3c0,6.3,0,12.7,0,19c0,1.6,0.1,2.7-2.3,2.7c-1.9,0-3.8,0.6-5,3.2
			c-0.8,1.8-3.4,3.7-5.3,5.3c-1.2,1-2,2-3,3c-1.9,1.8-3.6,3.9-5.6,5.5c-1.1,0.9-1.9,2.1-2.8,2.8c-2.2,1.7-3.7,4.2-5.9,5.9
			c-0.1,0.1-0.4,0-0.5,0.1c-1.5,2.6-4.2,4.2-6.1,6.4c-1.9,2.2-4.1,4.1-6.2,6.2c-2.2,2.1-4.5,4.1-6.4,6.5c-0.7,0.9-0.8,2-2.2,2
			c-0.1,0-0.2,0-0.3,0.1c-1.6,2.6-4.3,4.1-6.1,6.4c-0.1,0.1,0,0.5-0.1,0.5c-2.7,1.1-3.8,4.1-6.1,5.6c-0.7,0.5-1.9,0.6-2,1.5
			c-0.2,3.3-2.5,2.8-4.5,2.8c0-7.1,0-14.1,0-21.2c1.3-1.2,2.5-3,3.7-3.9c3.1-2.1,4.5-6.8,9.5-6c1.5,0.3,2.4-0.8,2.5-2.4
			c0-0.6,0-1.2,0.1-1.8c0.2-2.8,1.3-3.9,4.1-4c2.1-0.1,4.1-0.2,4.8-2.7c0.2-0.7,1-1.2,1.8-1.4c1-0.3,1.7-0.9,2-1.9
			c0.4-1.2,1.1-2,2.3-2.3c0.8-0.3,1.5-0.7,1.7-1.5c0.5-1.5,1.4-2.4,2.8-2.9c1.5-0.6,1.4-2,1.5-3.4c0.2-4.4,0.6-4.8,4.9-5
			c1.8-0.1,3.3-0.4,3.9-2.4c0-0.2,0.1-0.4,0.3-0.4c3-1,3.7-4.5,6.5-5.8c1.4-0.6,1.3-1.9,1.4-3.2c0.3-4.6,0.6-4.9,5.1-5.1
			c1.7-0.1,3.1-0.4,3.7-2.3c0.1-0.5,0.5-1.1,1-1.2c2.9-0.9,3.2-3.2,3-5.7c0-0.7,0.2-1.4,0.3-2.1c0.1-0.6,0.2-1.1,0.2-1.7
			c0.1-1.1-0.1-2.3,1.3-2.9c1.4,0.2,1.2-0.9,1.2-1.7c0.1-2.4-0.9-4.7-0.2-7.1c0.2-1.4,0.1-2.7-0.1-4.1c-0.2-1.5,0.3-2.7,1.9-3.2
			c0.5-0.1,0.9,0,1.3,0.4c0.2,0.2,0.4,0.5,0.4,0.8c0.1,0.3,0.1,0.6,0,0.8c-0.2,0.9-0.7,1.7-0.9,2.6c-0.6,2.5-0.4,5,0.1,7.5
			c0.1,1.3,0.1,2.6,0,3.9c-0.4,1.4-0.2,2.9-0.9,4.2C230.5,94.6,230.4,94.6,230.3,94.7z"/>
		<path fill="#684298" d="M345.6,18.5c0,2,0,4,0,6.1c0,1.6-0.6,2.3-2.3,2.4c-4.6,0.3-5.8,1.5-6.1,6.1c-0.1,1.7-0.8,2.3-2.4,2.3
			c-5.8,0.3-5.9,0.3-6.1,6c-0.1,1.8-0.8,2.5-2.5,2.5c-2.8-0.1-4.9,1.1-5.8,3.9c-0.7,2.3-2.2,3.9-4.6,4.6c-2.9,0.9-4.1,2.9-4,5.8
			c0.1,2-0.8,2.6-2.7,2.6c-2.7,0-4.8,1-5.6,3.8c-0.8,2.4-2.3,4.1-4.8,4.8c-3,0.9-3.9,3.2-3.9,6.1c0,1.7,0.3,3.4-2.6,2.4
			c-1.4-0.5-3.2,0.5-4.8,0.8c-1.7,0.7-3.4-0.9-5.2-0.1c-2.3-0.6-4.8-0.5-6.6-2.3c-0.4-0.8,0.1-1.3,0.6-1.8c1.6-0.8,3.3-0.8,5.1-0.7
			c-2-0.3-3.9,0.4-5.8,0.5c-2.7,0.2-3.3-0.8-2.2-3.4c1.1-0.6,2.2-0.4,3.3-0.3c0.5,0,1.1,0.3,0.3-0.4c-0.5-2.9,0.3-4.8,2.8-6.9
			c2-1.7,4.6-3.4,5.8-6.1c0.3-0.6,0.8-1.2,1.5-1.5c1.5-0.5,2.3-1.5,2.9-2.9c0.3-0.6,0.8-1.2,1.5-1.4c1.4-0.5,2.2-1.4,2.6-2.7
			c0.1-0.2,0.2-0.4,0.3-0.4c2.9-1.1,3.7-4.6,6.5-5.8c0.4-0.2,0.9-0.5,0.9-0.9c0.2-3.1,2.7-4.9,4.7-6c2.7-1.6,4.3-4.2,6.9-5.6
			c0.7-0.4,1.3-0.9,1.6-1.7c0.1-0.4,0.3-0.9,0.7-1.1c3.6-2,4.5-6.5,7.9-8.7C330.8,18.5,338.2,18.5,345.6,18.5z"/>
		<path fill="#69429A" d="M323.4,18.5c0.1,1.6-0.7,2.5-1.7,3.7c-1.8,2.2-3.1,4.7-5.4,6.6c-0.9,0.8-2.2,1.8-2.7,2.7
			c-1.8,2.6-4.3,3.8-6.6,5.4c-0.7,0.5-1.7,1.4-2.1,2.1c-1.6,2.5-2.9,4.8-5.4,6.7c-0.9,0.7-1.8,1.8-2.7,2.7c-1.9,1.9-4.1,3.7-5.8,5.8
			c-0.8,1-1.7,1.8-2.6,2.6c-2,1.9-4.1,3.8-5.9,6c-0.8,0.9-0.9,2.2-2.5,2.4c-1.3,0.1-2,1.1-1.8,2.5c0.2,1.1-0.1,1.9-0.7,2.7
			c-1.1,1.1-2.6,0.2-3.8,0.6c0,0,0,0.1,0,0.2c0,0.1,0.1,0.2,0.1,0.2c-0.4,1.8,0.2,2.4,2,2.2c2.6-0.4,5.2-0.6,7.8-0.9
			c0.5,1.9-0.4,2.1-2,2.1c-1.5,0-3.2-0.4-4.7,0.3c-0.9,0.4-1.8,0.8-2.9,0.7c-2.2-0.4-4.4-0.4-6.6-0.5c-9.7-0.1-19.3,0.2-29-0.1
			c-2.1-1.5-0.4-2,0.8-2.3c2.2-0.4,4.4-0.3,6.6-0.2c2.4,0.1,4.5-0.3,6.4-1.8c0.8-0.6-0.3-0.6-0.1-0.9c-0.3-2,1-2.4,2.5-2.6
			c5-0.5,5-0.5,5.2-5.3c0.1-3.3,1.4-5.1,4.7-5.6c2.1-0.4,3.6-1.1,4.2-3.3c0.5-1.7,1.9-2.1,3.5-2.2c4.1-0.3,4.4-0.6,4.4-4.8
			c0-2.7,0.5-5.3,0.7-7.9c0.2-2.5,2-4,4.9-4.2c2.6-0.2,5.3,0,7.9-0.1c2.6-0.1,3.2-0.7,3.4-3.3c0-0.6,0.1-1.2,0.1-1.8
			c0.1-2,1-3.1,3.1-3.2c0.4,0,0.9-0.1,1.3-0.1c3.3-0.2,3.8-0.6,4-3.9c0.1-1.3,0.1-2.5,1.3-3.3C310,18.5,316.7,18.5,323.4,18.5z"/>
		<path fill="#6C43A0" d="M231.3,74.6c-1.9,1-1.6,2.9-1.6,4.6c0,0.9,0,1.9,0,2.8c-0.8,0.3-1.6,0.4-2.5,0.1c-1-2.1-2.3-3.7-5-3.2
			c-2.4,0.3-4.8,0.1-7.1,0.2c-2.9,0.1-3.6,0.7-3.8,3.6c-0.3,4.5-0.3,4.5-5,4.9c-2.7,0.2-3.3,0.8-3.5,3.6c-0.3,4.5-0.3,4.5-5,4.9
			c-2.6,0.2-3.2,0.8-3.5,3.3c-0.4,4.8-0.4,4.8-5,5.1c-2.7,0.2-3.2,0.8-3.4,3.6c-0.3,4.4-0.5,4.5-4.8,4.8c-2.9,0.2-3.5,0.8-3.7,3.7
			c-0.3,4.4-0.4,4.5-4.8,4.8c-2.8,0.2-3.4,0.8-3.7,3.4c-0.2,1.7,0.4,4-1.7,4.6c-2.6,0.7-5.5,1.3-8-0.8c0-2.6,0-5.3,0-7.9
			c3-1.2,4.6-4.1,6.8-6.2c1.9-1.8,4.8-3.2,5.7-6.2c0.2-0.7,0.9-1.1,1.6-1.3c1.2-0.4,1.9-1.1,2.4-2.3c0.3-0.8,1-1.6,1.8-1.9
			c1.4-0.5,2.2-1.4,2.6-2.8c0-0.2,0.1-0.4,0.3-0.4c3-0.9,3.6-4.4,6.3-5.6c0.8-0.3,1.3-0.9,1.6-1.7c0.1-0.4,0.2-1,0.6-1.1
			c2.9-1,3.6-4.4,6.3-5.6c0.8-0.3,1.3-0.9,1.6-1.7c0.1-0.4,0.2-1,0.6-1.1c2.9-1,3.6-4.5,6.3-5.6c0.8-0.3,1.3-0.9,1.6-1.7
			c0.1-0.4,0.2-1,0.6-1.1c2.9-1,3.6-4.4,6.3-5.6c0.8-0.3,1.3-0.9,1.6-1.7c0.1-0.4,0.2-1,0.6-1.2c3-1,3.6-4.4,6.3-5.6
			c0.8-0.3,1.3-0.9,1.6-1.7c0.1-0.4,0.2-1,0.6-1.2c2.9-1,3.6-4.4,6.3-5.6c0.8-0.3,1.3-0.9,1.6-1.7c0.1-0.4,0.2-1,0.6-1.2
			c2.9-1,3.6-4.4,6.3-5.6c0.8-0.3,1.3-0.9,1.6-1.7c0.1-0.4,0.2-1,0.6-1.2c2.9-1,3.6-4.4,6.3-5.6c0.8-0.4,1.3-0.9,1.6-1.7
			c0.1-0.4,0.2-1,0.6-1.2c2.9-1,3.6-4.4,6.3-5.6c0.8-0.4,1.3-0.9,1.6-1.7c0.2-0.7,0.5-1.5,1.1-1.7c2.2-0.7,3-2.8,4.3-4.4
			c2.6,0,5.3,0,7.9,0c2.1,2.5,1.4,5.3,0.7,8c-0.4,1.6-2.1,1.6-3.6,1.7c-4,0.3-4.1,0.4-4.4,4.3c-0.2,3.3-0.9,3.9-4.2,4.2
			c-3.9,0.3-4,0.4-4.3,4.4c-0.2,3.2-0.9,3.9-4.2,4.1c-3.7,0.3-4,0.5-4.2,4.2c-0.2,3.4-0.9,4-4.3,4.3c-3.7,0.2-3.9,0.4-4.1,4.3
			c-0.2,3.1-0.9,3.9-3.6,4.2c-4.9,0.5-5.4,1.3-4.4,6.5c0.6,1,1.4,1.7,2.3,2.5c1.1,1,1.9,2.1,1.1,3.6
			C231.8,74.8,231.6,74.8,231.3,74.6z"/>
		<path fill="#6B429D" d="M303.3,18.5c0,1.8,0,3.5,0,5.3c0,2.2-1,3.1-3.2,3.2c-5.2,0.2-5.3,0.2-5.2,5.5c0,2.4-0.9,3.1-3.1,3
			c-2.9-0.1-5.8-0.1-8.7,0c-3.4,0.1-4.4,1.3-4.6,4.7c-0.2,3.1-0.7,6.1-0.5,9.2c0.1,2.1-1.1,3-3.1,3c-0.6,0-1.2,0.1-1.8,0
			c-2.2-0.2-3.4,0.7-3.5,2.9c-0.1,1.8-1,2.4-2.7,2.4c-4.8,0.3-5.8,1.3-5.8,6.1c0,0.2,0,0.4,0,0.5c0,4.6,0,4.5-4.6,4.5
			c-1.4,0-3.4-0.9-3.8,1.5c-1,1.1-2.3,1.2-3.6,1.2c-2.5,0.1-5.1,0-7.6,0c-1.7,0-3.3,0.1-4.7,1.3c-1,0.8-2.3,0.9-3.4,0.2
			c-1.1-0.7-1.1-1.7-0.7-2.8c0.1-0.3,0.2-0.6,0.3-0.8c0.7-1.2,1.9-2,2.1-3.6c0.1-1,1.1-1.6,2.2-1.6c1.3,0,1.9-0.6,1.9-1.9
			c0.1-1.5,0.9-2.3,2.4-2.3c1.2,0,1.8-0.6,1.8-1.8c0.1-1.6,0.9-2.4,2.5-2.5c1.2,0,1.7-0.7,1.8-1.8c0.1-1.5,0.8-2.3,2.3-2.4
			c1.3,0,1.9-0.6,2-1.9c0.1-1.5,0.9-2.2,2.4-2.3c1.2,0,1.8-0.5,1.8-1.8c0-1.6,0.9-2.4,2.5-2.5c1.2,0,1.7-0.7,1.8-1.8
			c0-1.5,0.8-2.3,2.3-2.4c1.3-0.1,1.9-0.6,2-1.9c0-1.5,0.9-2.2,2.4-2.3c1.1-0.1,1.8-0.5,1.8-1.7c0-0.1,0-0.2,0-0.3
			c-0.1-2.9,3.7-1.4,4-3.3c0.4-2.5,1.4-3.4,3.8-3.2c1.3,0.1,2.2-0.3,2.2-1.9c0-0.4,0-1.1,0.4-1.2c2-0.9,2.1-3,3.1-4.6
			C289.2,18.5,296.2,18.5,303.3,18.5z"/>
		<path fill="#5C3E84" d="M311.8,204.8c4.7,0,9.3-1.6,14.1-1.1c1.6,0.2,1.7-1.1,1.7-2.4c0-3.1,0-6.2,0-9.3c0-3.4,0.5-4,3.9-4.2
			c2.6-0.2,4.6-1.1,5.4-3.8c0.7-2.5,2.1-4.1,4.7-4.8c2.9-0.8,4-2.9,4-5.8c0-1.8,0.6-2.3,2.4-2.6c3.8-0.6,7.6-1.2,11.5-1
			c1.5,0.1,2.1-0.8,2-2.2c-0.3-4,0.4-7.9,1.1-11.8c0.1-0.8,0.2-1.8,1.2-1.8c2.5,0.1,4.7-1.3,7.2-1.2c0,6,0,12,0,18
			c-1.3,1.2-3.1,2-3.6,4c-0.2,0.7-1,1.1-1.8,1.4c-0.8,0.2-1.5,0.7-1.7,1.5c-0.4,1.6-1.3,2.6-3,3c-0.6,0.1-1.1,0.6-1.3,1.2
			c-0.5,1.6-1.5,2.5-3,3c-1.6,0.5-1.1,2.5-2.3,3.4c-1.1,0.6-2.3,0.7-3.6,0.8c-3.5,0.2-3.8,0.4-3.9,4c-0.1,1.1-0.2,2.1-0.6,3.1
			c-0.1,0.3-0.3,0.5-0.6,0.6c-1.3,0.7-2.7,0.7-4.1,0.7c-2.2,0-3.2,1.1-3.2,3.2c0,1.4,0,2.8-0.7,4.1c-3.3,0.9-3.9,5-7.2,5.9
			c-0.5,3.4-4.9,3.4-5.6,6.7c0,0.1-0.2,0.3-0.4,0.4c-2.2,0.7-3.2,2.5-4.1,4.3c-1.4,0.7-2.9,0.7-4.4,0.8c-2,0-3,1.1-3.1,3.1
			c-0.1,1.5,0.1,3-1.3,4.1c-2.8,0-5.6,0-8.5,0c-2.1-2.6-1.4-5.5-0.7-8.2c0.3-1.2,1.7-1.3,2.9-1.4c4.9-0.5,5-0.6,5-5.6
			c0-2.5,0-4.9,0.1-7.4C310.6,206.5,310.9,205.5,311.8,204.8z"/>
		<path fill="#63408F" d="M302.2,111.7c1.9-0.3,3.8-0.6,5.8-0.5c2.2,0.1,3.3-1,3.2-3.2c0-0.3,0-0.5,0-0.8c0.1-4.4,0.1-4.4,4.6-4.5
			c3.3,0,3.8-0.6,3.9-3.9c0.1-4.4,0.2-4.5,4.7-4.6c3.2-0.1,3.7-0.6,3.8-3.7c0.1-4.6,0.1-4.6,4.8-4.8c3.1-0.1,3.6-0.6,3.6-3.8
			c0.1-4.4,0.2-4.6,4.7-4.6c3.3-0.1,3.7-0.6,3.8-3.9c0.1-4.2,0.3-4.5,4.5-4.5c3.4-0.1,3.9-0.5,3.9-4.1c0.1-4.1,0.3-4.4,4.4-4.4
			c3.6,0,4-0.5,4.1-4.2c0-3.9,0.4-4.3,4.2-4.3c1.6,0,3.2,0,4.8,0c0,4.4,0,8.8,0,13.2c-1,1.3-2.4,1.2-3.9,1.3
			c-2.9,0.1-3.2,0.5-3.4,3.2c-0.3,4.7-0.5,5-5.3,5.2c-2.2,0.1-3.3,1-3.2,3.2c0.1,2.6-0.3,4.8-3.2,5.6c-0.5,0.1-0.8,0.7-1,1.2
			c-0.4,1.4-1.3,2.3-2.6,2.7c-0.8,0.2-1.4,0.8-1.6,1.6c-0.7,2.2-2.4,2.6-4.4,2.6c-3.9,0.1-3.9,0.2-4.1,4.1c-0.1,2.1-0.6,3.8-2.9,4.4
			c-0.4,0.1-0.9,0.4-1,0.8c-0.6,1.8-1.7,3-3.5,3.6c-0.3,0.1-0.6,0.4-0.7,0.7c-0.8,3.1-3.2,3.3-5.8,3.3c-2-0.1-3,0.9-2.9,2.9
			c0.1,2.6-0.2,5-3.3,5.9c-0.7,0.2-0.9,1-1.2,1.7c-0.3,0.9-0.9,1.6-1.7,1.9c-1.4,0.5-2.3,1.3-2.7,2.7c-0.2,0.6-0.6,1.2-1.2,1.4
			c-1.6,0.6-2.5,1.7-3.3,3.2c-1.1,2.1-3.3,1.5-5.5,1.4c2.3,2.2,0,3.4-0.8,4.9c-0.1,0.2-0.3,0.4-0.6,0.6c-1,0.3-1.4-0.4-1.9-1.1
			c-0.2-0.5-0.5-1.1-0.9-1.4c-0.4-0.3-0.7-0.5-1-0.9c-0.4-0.4-0.9-0.8-1.3-1.1c-1.1-1-2.5-1.7-3-3.3c0.6-2.7,1.7-3.6,4.7-4
			c4.4-0.6,4.8-1.4,3.2-5.6C300.4,115.7,300.8,113.5,302.2,111.7z"/>
		<path fill="#6F43A3" d="M159.4,111.7c0-3.9,0-7.8,0-11.6c0.6-0.5,1.3-0.5,2-0.5c1.5,0,2.6-0.8,2.7-2.3c0.1-1.7,1.1-2,2.5-1.9
			c0.9,0,1.8,0,2.6,0c1.9,0.1,3.3-0.6,3.4-2.7c0.1-0.9,0.5-1.5,1.5-1.5c2.3-0.1,2.9-1.6,2.8-3.7c0-0.9,0-1.8,0-2.6
			c-0.1-1.4,0.3-2.1,1.9-2.2c2.4-0.1,1.8-2.8,2.9-3.8c1.1-1,3.5-0.5,3.6-2.8c0.1-1.8,1.1-2,2.5-1.9c1,0,1.9,0,2.9,0
			c0.5,0,1,0,1.6-0.2c2-0.6,0.8-3.4,2.6-3.9c1.8-0.4,3.2-0.9,3.3-3c0-0.8,0.5-1.3,1.3-1.3c2.3-0.1,2.9-1.5,2.9-3.6
			c0-4.8,0.1-4.9,4.9-4.9c1.9,0,3.4-0.4,3.5-2.6c0.1-1.1,0.6-1.7,1.6-1.6c3.2,0.3,1.6-4,4.1-4.2c3.2-0.3,2.7-2.7,2.7-4.8
			c0-3.7,0-3.8,3.8-3.7c2.4,0,4.7,0.1,4.8-3.3c0-0.7,0.7-0.9,1.4-0.9c1.7-0.1,2.6-1,2.7-2.6c0.1-1.1,0.6-1.6,1.7-1.6
			c0.3,0,0.5-0.1,0.8-0.1c2.1-0.5,1.1-3.3,2.6-3.9c1.6-0.6,3.3-0.7,3.4-2.9c0-0.8,0.3-1.5,1.1-1.5c2.6-0.1,3.2-1.7,3.2-3.9
			c0-0.4,0.2-0.7,0.5-0.9c2.5,0,4.9,0,7.4,0c1.3,1.7,1.7,6.6,0.8,8.3c-0.7,1.3-2,1.3-3.2,1.4c-4.4,0.4-4.4,0.4-4.8,4.8
			c-0.2,2.9-0.8,3.5-3.7,3.7c-4.4,0.3-4.4,0.3-4.8,4.8c-0.2,2.9-0.8,3.4-3.7,3.7c-4.4,0.3-4.4,0.3-4.7,4.8c-0.2,2.9-0.8,3.4-3.7,3.7
			c-4.4,0.3-4.4,0.3-4.7,4.8c-0.2,2.9-0.8,3.4-3.7,3.7c-4.4,0.3-4.4,0.3-4.8,4.8c-0.2,2.9-0.8,3.5-3.7,3.7c-4.4,0.3-4.4,0.3-4.8,4.8
			c-0.2,3-0.8,3.5-3.9,3.7c-4.1,0.3-4.2,0.4-4.5,4.5c-0.2,3.3-0.7,3.8-4.2,4c-3.7,0.2-4,0.5-4.2,4.2c-0.2,3.6-0.7,4.1-4.2,4.3
			c-3.7,0.2-4,0.5-4.2,4.2c-0.2,3.6-0.7,4-4.2,4.3c-3.7,0.2-4,0.6-4.2,4.2c-0.2,3.6-0.8,4.2-4.5,4.2
			C162.7,112.9,160.8,113.4,159.4,111.7z"/>
		<path fill="#6B429D" d="M222.9,77.8c0.2,0,0.3,0,0.5,0c4.2,0,4.2,0,4.2,4.2c0.9,2.1,1.4,4.2,1.3,6.5c0,0.8,0,1.5-0.8,2
			c-0.7,1-0.5,2.1-0.5,3.2c-1.2,1.1-2.7,0.7-4,0.8c-3.6,0.1-5.1,1.6-5.2,5.1c-0.1,3.2-0.2,3.2-3.3,3.3c-3.6,0.1-5,1.5-5.1,5.2
			c-0.1,3.1-0.2,3.1-3.4,3.3c-3.4,0.1-4.9,1.6-5.1,5c-0.2,3.3-0.2,3.3-3.5,3.4c-3.3,0.1-4.8,1.7-5,5.1c-0.1,3.1-0.2,3.2-3.3,3.3
			c-3.6,0.2-5,1.6-5.1,5.2c-0.1,3-0.2,3.1-3.2,3.2c-3.7,0.2-5.1,1.6-5.3,5.3c-0.1,2.9-0.3,3-3.3,3.1c-3.6,0.2-5,1.6-5.2,5.2
			c-0.1,3.1-0.3,3.3-3.4,3.2c-1.6,0-3.4,0.6-4.8-0.8c0-3.9,0-7.8,0-11.6c1.3-1.2,3.1-2,3.6-4c0.2-0.7,0.9-1.1,1.6-1.3
			c1.1-0.3,1.9-1,2.2-2.1c0-0.2,0.1-0.4,0.2-0.5c2.7-1.5,3.9-4.5,6.5-6c0.1-0.1,0.4-0.1,0.5-0.2c1-2.8,4.3-3.6,5.6-6.2
			c0.2-0.3-0.1-0.1,0.1-0.2c2.6-1.6,3.9-4.5,6.5-6c0.8-0.5,1.5-0.9,1.7-1.8c0.1-0.4,0.2-1,0.6-1.1c2.1-1.1,3.3-3.2,4.9-4.8
			c2.7-2.5,5.6-4.9,7.7-7.9c0.4-0.6,1-1,1.7-1.2c1-0.3,1.7-0.9,2-1.9c0.4-1.2,1.1-2,2.3-2.3c0.9-0.3,1.6-0.8,1.8-1.7
			c0.4-1.4,1.3-2.2,2.7-2.6c0.7-0.2,1.2-0.7,1.4-1.4c0.4-1.5,1.4-2.4,2.9-2.8c0.7-0.2,1.2-0.8,1.4-1.5c0.4-1.4,1.3-2.3,2.6-2.7
			C221.6,80.4,221.7,78.6,222.9,77.8z"/>
		<path fill="#63408F" d="M192.2,230.2c0-1.6,0-3.2,0-4.8c0.1-3.2,1.5-4.6,4.7-4.8c3.6-0.2,3.6-0.2,3.7-3.6c0.1-3.4,1.5-4.9,5.2-4.8
			c2.5,0.1,3.4-0.7,3.4-3.3c-0.1-3.9,1.3-5.2,5.3-5.2c2.4,0,3.2-0.8,3.2-3.2c-0.1-3.9,1.3-5.4,5.2-5.3c2.6,0.1,3.3-0.9,3.3-3.4
			c-0.1-3.7,1.4-5,5.1-5.1c1.6,0,3.2,0.3,3.3-2.2c0.1-3.4-0.6-4.7-3.1-5.2c-0.6-0.1-1.5,0.2-1.9-0.9c4.8-0.7,9.6-1.7,14.4-1.3
			c0.2,0.3,0.1,0.5-0.1,0.7c-2.2,0.1-4.4,0-6.3,0.1c0.1,0.1,0.6,0,1,0c3.2,0.2,6.3-0.4,9.4-0.2c1,0.2,1.8,0.7,2.8,0.7
			c1.3,0.1,2.5,0.4,2.7,2c0.2,1.6,0.1,3.2-1.5,3.9c-1.5,0.7-2.4,1.6-3,3.1c-0.3,0.8-1,1.2-1.8,1.5c-1.1,0.3-1.8,1.1-2.1,2.2
			c-0.1,0.3-0.2,0.6-0.4,0.7c-2.8,1.2-3.7,4.5-6.4,5.8c-0.7,0.3-1.2,0.7-1.5,1.4c-0.5,1.5-1.4,2.4-2.9,2.8c-0.8,0.3-1.3,0.9-1.5,1.7
			c-0.4,1.2-1.2,1.9-2.3,2.3c-0.7,0.2-1.4,0.6-1.6,1.3c-0.6,1.6-1.5,2.7-3.2,3.2c-0.8,0.3-1.1,1-1.4,1.8c-0.3,0.9-0.9,1.6-1.7,1.9
			c-1.4,0.5-2.3,1.3-2.7,2.7c0,0.2-0.1,0.4-0.3,0.4c-2.9,1-3.6,4.6-6.5,5.7c-0.3,0.1-0.8,0.3-0.9,0.6c-0.9,3.2-4.7,3.8-6.1,6.6
			C201.3,230.2,196.8,230.2,192.2,230.2z"/>
		<path fill="#623F8E" d="M301.2,134.4c0.1-1.1,0.9-1.7,1.5-2.4c0.3-0.4,0.4-0.8-0.1-1.1c-0.3-0.2-0.5-0.5-0.9-0.2
			c-0.3,0.3,0.2,1.6-0.9,0.6c-0.5-0.4-0.4-1.2,0-1.7c0.8-0.9,1.7-1.5,3-1.2c2,0.4,2.9-0.3,4-2.4c1.2-2.1,3.7-3.8,5.6-5.7
			c0.9-0.9,2.6-1,2.7-2.9c0-1,0.8-1.5,1.8-1.6c1.8-0.1,2.3-1.1,2.4-2.8c0.2-5.5,0.2-5.5,5.7-5.7c0.4,0,1.2,0,1.3-0.1
			c1.1-2.9,4.4-3.7,5.7-6.3c0.4-0.9,0.6-1.9,1.8-1.9c2.2-0.1,2.6-1.4,2.5-3.2c0-0.4,0-0.9,0-1.3c0-3.9,0.1-4,4-4
			c2.2,0,3.8,0.1,5-2.8c0.7-1.8,3.3-4.3,5.2-5.2c2.4-1.1,2.8-2.3,2.8-4.4c0-4.4,0-4.4,4.3-4.5c4,0,4.1-0.1,4.1-4.2
			c0-4.3,0-4.3,4.2-4.3c1.4,0,2.8,0,4.2,0c0,4.2,0,8.5,0,12.7c-2,0-4.1,0-6.1,0c-1.7,0-2.3,0.6-2.4,2.3c-0.1,1.9,0.9,4.2-0.6,5.6
			c-1.4,1.3-3.7,0.4-5.6,0.5c-1.6,0.1-2.1,0.7-2.2,2.3c-0.1,1.9,0.8,4.2-0.6,5.6c-1.4,1.4-3.7,0.5-5.6,0.6c-1.7,0.1-2.2,0.8-2.3,2.5
			c-0.2,5.7-0.3,5.7-6.1,6c-1.7,0.1-2.3,0.7-2.4,2.4c-0.3,5.8-0.3,5.9-6,6.1c-1.8,0.1-2.4,0.8-2.5,2.5c-0.2,5.7-0.2,5.8-5.9,5.9
			c-2,0-2.6,0.9-2.6,2.7c-0.1,5.6-0.2,5.6-5.8,5.7c-1.9,0-2.8,0.7-2.7,2.6c0.1,1.5,0,3,0,4.5c0,1.6-0.1,2.9-2,3.8
			c-1.9,0.9-1.2,3.3-1,4.8c0.4,2.6-0.5,4.8-0.8,7.2c-0.1,0.6-0.1,1.4-0.9,1.4c-0.8,0-0.9-0.8-0.9-1.4c0-3.3-0.7-6.6,0.8-9.8
			c0.4-0.8,0.2-1.5-0.6-1.7c-2-0.5-2.7-2.4-4.2-3.5C301.5,136,302.1,134.9,301.2,134.4z"/>
		<path fill="#5D3F86" d="M371,134.4c-0.4,0-0.9-0.1-1,0.1c-1.6,2.3-3.7,4.1-5.8,5.8c-0.2,0.2-0.1,0.9-0.3,1
			c-2.9,1.1-3.7,4.6-6.5,5.8c-0.1,0-0.2,0-0.2,0.1c-1.2,2.8-4.1,3.8-5.7,6.2c-0.1,0.1,0,0.4-0.1,0.5c-2.8,1.3-3.9,4.4-6.5,5.9
			c-0.1,0-0.2,0-0.3,0.1c-1.5,2.5-4,4-5.8,6.1c-0.2,0.2-0.1,0.7-0.2,0.7c-3,1-3.7,4.6-6.5,5.8c-0.1,0-0.2,0-0.2,0.1
			c-1.1,2.8-4.2,3.8-5.7,6.2c-0.1,0.1,0,0.4-0.1,0.5c-2.8,1.3-3.9,4.4-6.5,5.9c-0.1,0-0.2,0-0.3,0.1c-1.4,2.5-4,4-5.8,6.1
			c-0.2,0.2-0.1,0.7-0.2,0.7c-3,1-3.7,4.6-6.6,5.8c-0.1,0-0.2,0-0.2,0.1c-1.1,2.8-4.2,3.8-5.7,6.2c-0.1,0.1,0,0.4-0.1,0.5
			c-2.8,1.2-3.9,4.4-6.5,5.9c-0.1,0-0.2,0-0.3,0.1c-1.4,2.5-4,4-5.8,6.1c-0.1,0.1,0,0.4-0.1,0.5c-2.6,1.5-4,4.3-6.4,6
			c-0.1,0-0.2,0-0.2,0.1c-1.2,2.9-5.1,3.6-5.9,6.8c-1.6,0-3.2,0-4.8,0c0-0.6,0-1.2,0-1.9c0-4.9,0-4.9,4.7-5.6
			c2.4-0.4,3.6-1.9,3.8-4.6c0.2-3.6,0.2-3.6,3.6-3.8c3.5-0.1,4.9-1.5,4.8-5.2c-0.1-2.5,0.7-3.4,3.3-3.4c3.9,0.1,5.2-1.3,5.2-5.3
			c-0.1-2.5,0.9-3.2,3.2-3.2c3.9,0.1,5.3-1.3,5.2-5.2c0-2.4,0.7-3.3,3.2-3.2c4,0.1,5.4-1.3,5.3-5.4c0-2.3,0.8-3.1,3.1-3
			c4.1,0,5.4-1.3,5.4-5.4c0-2.3,0.7-3.1,3-3.1c4.2,0,5.4-1.2,5.4-5.6c0-2.2,0.8-2.9,3-2.9c4.3,0,5.5-1.2,5.5-5.5c0-2.1,0.7-3,2.9-3
			c4.5,0,5.5-1.1,5.6-5.7c0-2.1,0.8-2.7,2.8-2.8c4.5,0,5.6-1.1,5.6-5.6c0-2,0.7-2.8,2.7-2.8c4.6,0,5.7-1.1,5.7-5.6
			c0-2.2,0.8-3,3-2.9c1.5,0.1,3,0,4.5,0C371,131.2,371,132.8,371,134.4z"/>
		<path fill="#6C43A1" d="M159.4,111.7c2,0,4.1,0,6.1,0c1.7,0,2.3-0.6,2.4-2.3c0.1-1.9-0.9-4.2,0.6-5.6c1.4-1.4,3.7-0.4,5.6-0.5
			c1.5-0.1,2.2-0.7,2.2-2.2c0.1-1.9-0.8-4.2,0.5-5.6c1.4-1.5,3.7-0.5,5.6-0.6c1.7-0.1,2.3-0.8,2.3-2.4c0.3-5.8,0.3-5.8,6-6
			c1.9-0.1,2.4-0.8,2.4-2.6c0.2-5.6,0.2-5.7,5.9-5.9c2-0.1,2.5-0.9,2.5-2.8c0.1-5.5,0.1-5.6,5.8-5.7c1.9,0,2.6-0.7,2.7-2.7
			c0.1-5.7,0.2-5.7,5.7-5.8c2.1,0,2.7-0.8,2.8-2.8c0.1-5.5,0.1-5.6,5.6-5.6c2,0,3-0.6,2.8-2.7c0-0.2,0-0.4,0-0.5
			c0-5.8-0.5-5.3,5.3-5.2c2.4,0,3.3-0.7,3.2-3.2c-0.1-5.9-0.5-5.4,5.4-5.3c2.3,0,3.3-0.8,3-3.1c0-0.1,0-0.2,0-0.3
			c0-5.6-0.5-5.3,5.1-5.1c2.7,0.1,3.7-0.9,3.4-3.5c-0.2-1.7,0-3.3,0-5c3,0,6,0,9,0c0.2,2.4,0.1,4.7-3.2,5c-0.5,0.1-0.9,0.6-0.9,1.2
			c-0.2,1.7-1.9,2.1-2.7,3c-1.8,2.2-4.2,3.8-5.9,6.1c-0.1,0.1,0,0.4-0.1,0.5c-2.7,1.4-4.1,4.2-6.4,6c-2.2,1.8-4.1,4-6.1,6.1
			c-0.2,0.2-0.1,0.7-0.2,0.7c-3,1.1-3.7,4.6-6.6,5.8c-0.1,0-0.2,0-0.3,0.1c-1.1,2.8-4.2,3.8-5.7,6.2c-0.1,0.1,0,0.4-0.1,0.5
			c-2.8,1.2-3.9,4.4-6.5,5.9c-0.1,0-0.2,0-0.3,0.1c-1.4,2.6-4,4-5.8,6.2c-0.1,0.1,0,0.4-0.1,0.5c-2.7,1.4-3.9,4.4-6.4,5.9
			c-0.6,0.4-1.5,0.4-1.6,1.1c-0.3,2.1-1.3,3.1-3.4,3.4c-0.5,0.1-0.9,0.6-1,1.2c-0.2,1.7-1.8,2.1-2.7,3.1c-1.9,2.2-4.2,3.8-5.9,6
			c-0.1,0.1,0,0.4-0.1,0.5c-2.7,1.4-4.1,4.2-6.4,6c-2.2,1.8-4.1,4-6.2,6.1c-0.2,0.2-0.1,0.7-0.2,0.7c-2.9,1.1-3.8,4.6-6.5,5.8
			c-0.2,0.1-0.4,0-0.5,0.1c-1.3,2.2-4,3.5-4.9,5.3c-1.4,2.6-2.8,3.2-5.3,3C159.4,117.7,159.4,114.7,159.4,111.7z"/>
		<path fill="#7244A9" d="M159.4,57.2c0-7.4,0-14.8,0-22.2c0.9-1.2,2.3-1.2,3.6-1.3c2-0.1,2.9-1.1,3.1-3.1c0.4-4.7,0.6-4.9,5.3-5.3
			c2-0.2,3.1-1.1,3.1-3.1c0-1.3,0-2.7,1.3-3.6c8.6,0,17.3,0,25.9,0c2.1,3.9,0.6,6.9-3.6,7.6c-3.3,0.5-3.8,1.2-4.2,5.1
			c-1.6,1.6-3.3,3.1-4.8,4.9c-1.1,0.3-2.2,0.1-3.3,0.3c-1.7,0.2-3.1,1-3.8,2.7c-0.4,1-1.1,1.8-2.2,2.1c-1.8,0.7-2.5,2-2.7,3.8
			c-0.2,1.1,0.1,2.3-0.3,3.3c-0.9,1.2-2.2,1.6-3.7,1.6c-1.8-0.1-3.2,0.6-4.3,2.1c-1.3,1.7-3.2,2.8-4.3,4.8
			C163.4,58.7,161.4,58.7,159.4,57.2z"/>
		<path fill="#593E81" d="M337.2,230.2c-5.3,0-10.6,0-15.9,0c-1.4-2.2-0.9-4.6-0.5-6.9c0.2-1.4,1.7-1.6,2.9-1.7
			c4.4-0.4,4.4-0.4,4.8-4.8c0.3-2.7,1-3.5,3.8-3.7c4.3-0.4,4.3-0.4,4.7-4.7c0.2-2.6,0.8-3.2,3.4-3.4c4.8-0.3,5.3-0.7,5.5-5.4
			c0.1-2.5,0.6-3,3.2-3.1c0.2,0,0.4,0,0.5,0c4.1-0.2,4.9-1.4,3.4-5c-0.1-0.8-0.1-1.7,0.5-2.4c1.3-1.4,3.1-1.5,4.9-1.6
			c3.1-0.1,3.7-0.7,3.9-3.8c0.1-1.7,0-3.7,2-4.2c2.2-0.6,4.7-1.1,6.7,0.8c0,5.3,0,10.6,0,15.9c-1.4,1.2-2.9,2.2-3.6,4
			c-0.6,1.5-2.3,1.4-3.7,1.4c-2.1,0-3.9,0.3-4.5,2.7c-0.1,0.4-0.5,0.8-0.9,1c-2.7,0.8-2.9,2.8-3,5.2c0,2.9-0.9,3.8-3.8,3.9
			c-2.4,0-4.4,0.3-5.2,3c-0.1,0.5-0.7,0.8-1.2,1c-1.4,0.4-2.3,1.2-2.7,2.6c-0.1,0.5-0.5,1.1-1,1.2c-2.7,0.9-3.2,3-3,5.4
			C338.4,228.7,338,229.5,337.2,230.2z"/>
		<path fill="#6B439E" d="M222.9,77.8c0.1,2.2-0.1,3.5-2.8,4.7c-1.9,0.8-3.6,3.4-5.3,5.2c-1,1.1-1.9,2.1-3.1,3.1
			c-1.9,1.6-3.5,3.6-5.4,5.3c-1,0.9-1.9,2.1-3,3.1c-1.9,1.8-3.8,3.6-5.5,5.5c-1,1.1-2,1.9-2.9,2.9c-1.8,1.8-3.7,3.7-5.5,5.5
			c-1,1-2,2-2.9,2.9c-1.8,2-4.2,3.6-5.6,5.7c-0.9,1.3-2,1.8-2.8,2.7c-1.9,2-4,3.7-5.7,5.7c-0.9,1.1-1.7,1.9-2.8,2.8
			c-2,1.6-4.5,3.6-5.4,5.4c-1.3,2.6-2.5,2.9-4.7,2.8c0-4.2,0-8.5,0-12.7c2,0,4.1,0,6.1,0c1.7,0,2.3-0.7,2.4-2.3
			c0.3-5.8,0.3-5.8,6.1-6.1c1.7-0.1,2.3-0.7,2.4-2.4c0.3-5.7,0.3-5.7,6.2-6.1c1.7-0.1,2.2-0.8,2.3-2.4c0.3-5.8,0.3-5.9,5.9-6
			c2-0.1,2.6-0.9,2.5-2.8c-0.1-6.1-0.4-5.8,5.7-5.7c2.1,0,2.8-0.8,2.8-2.8c-0.1-6-0.4-5.8,5.8-5.7c2.1,0.1,2.8-0.9,2.7-2.9
			c-0.1-6.1-0.4-5.6,5.8-5.6C218.3,77.8,220.6,77.8,222.9,77.8z"/>
		<path fill="#623F8E" d="M244,177.8c0-0.2,0-0.4,0-0.5c1,0,2.1,0,3.1,0c-3.5-1.1-7.1,0.2-10.5-1.1c0.9-1.1,2.3-0.8,3.4-0.8
			c9.2,0,18.4,0,27.6,0c1.8,0,3.5,0,5.2-0.4c1.4-0.4,2.9,0,4.3-0.8c0.4-0.3,0.8-0.4,1.2-0.6c0.3-0.1,0.6-0.1,0.8-0.1
			c2.2,0.9,4.5-0.3,6.7,0.5c0.6-0.1,1.2-0.2,1.8-0.3c2-0.2,1.6,0.8,0.8,1.9c-1.2,2-3.5,2.2-5.8,0.5c-1.8-0.1-3.5,0.1-4.9,1.4
			c-0.7,0.7-1.6,0.7-2.5,0.7c-2.5,1.7-5.4,1.2-8.2,1.3c-4.4,0.1-4.7,0.3-4.8,4.6c-0.1,4.4-0.4,4.6-4.9,4.9c-2.8,0.2-3.3,0.7-3.5,3.5
			c-0.3,4.6-0.4,4.7-4.9,5c-2.8,0.2-3.4,0.7-3.6,3.5c-0.3,4.7-0.4,4.7-4.9,5c-3,0.2-3.4,0.7-3.6,3.7c-0.3,4.3-0.4,4.5-4.8,4.8
			c-3,0.2-3.5,0.7-3.7,3.7c-0.3,4.4-0.4,4.5-4.8,4.8c-3,0.2-3.5,0.6-3.7,3.6c-0.1,1.3-0.1,2.7-1.3,3.6c-4.2,0-8.5,0-12.7,0
			c-0.1-2.2,0.1-3.5,2.8-4.7c1.9-0.8,3.7-3.4,5.3-5.2c1-1.2,2-2.1,3.1-3.1c1.8-1.7,3.6-3.5,5.4-5.4c1-1.1,1.9-2.1,3.1-3.1
			c1.9-1.6,3.5-3.6,5.4-5.3c1-0.9,2-2.1,3-3.1c1.9-1.8,3.9-3.6,5.5-5.6c1-1.2,2.1-1.9,2.9-2.9c1.8-1.9,3.8-3.7,5.5-5.6
			c1-1.1,1.2-2.6,3.1-2.8c1.2-0.1,1.4-1.2,1.4-2.2c0-1.2-0.5-1.8-1.7-1.9c-1,0-2,0.1-2.5-1.1c0.1-0.1,0.2-0.2,0.3-0.2
			c0.4-0.1,0.8,0,1.2,0c-0.7,0-1.4,0-2,0C246.5,177.9,245.2,178.4,244,177.8z"/>
		<path fill="#6B439C" d="M227.1,94.7c0,2,0,4.1,0,6.1c0,0.7-0.1,2-0.5,1.9c-3.8-0.6-2.9,4.3-5.8,4.7c-2,0.3-4.3-0.8-5.8,0.8
			c-1.4,1.5-0.5,3.7-0.6,5.6c-0.1,1.4-1.1,1.5-2,2.2c-2.4,1.8-4.7,3.9-6.3,6.4c-0.8,1.3-1.3,2-2.8,2c-5.7,0.2-5.7,0.2-5.8,5.8
			c0,1.5-0.8,1.9-2,2.8c-2.4,1.6-4.4,4-6.4,6.3c-0.3,0.4-0.2,1.7-0.6,1.6c-4.1-0.9-3,6.2-7.4,4.7c-0.7-0.2-1.6,0-2.4,0
			c-1.7,0-2.3,0.8-2.4,2.4c-0.1,1.9,0.9,4.2-0.7,5.6c-1.4,1.2-3.6,0.4-5.4,0.5c-1.5,0.1-2.5,0.7-2.3,2.2c0.3,3.2-4.2,1-4.2,3.7
			c0,3.4-2.5,2.4-4.3,2.6c0-2.8,0-5.6,0-8.5c1.7-1,3.6-0.5,5.4-0.5c1.8,0,2.5-0.5,2.5-2.4c0.1-5.8,0.2-5.9,6.1-6.1
			c1.9,0,2.4-0.8,2.4-2.6c0.1-5.7,0.1-5.8,6-5.9c1.8,0,2.5-0.6,2.5-2.4c0.1-5.8,0.2-5.8,6.1-6c1.7-0.1,2.5-0.6,2.3-2.3
			c0-0.3,0,0.1,0-0.3c0.2-5.7,0.2-5.7,6-5.9c1.8,0,2.4-0.7,2.5-2.5c0.1-5.8,0.2-5.9,5.9-6c2,0,2.6-0.7,2.6-2.6
			c-0.1-6.5-0.5-5.9,5.8-5.8c2.1,0,2.7-0.8,2.7-2.8c-0.1-6.2-0.6-5.7,5.9-5.7C225.1,94.2,226.2,93.9,227.1,94.7z"/>
		<path fill="#583D7F" d="M337.2,230.2c0-1.4,0-2.8,0-4.2c0-2.2,0-3.6,2.8-4.7c1.9-0.8,4.5-3.4,5.2-5.2c1.2-2.9,2.7-2.9,4.9-2.9
			c3.9,0,4-0.1,4-4c0-2.2-0.5-4.6,3-4.7c0.8,0,1.2-0.8,1.2-1.5c0-2.4,1.6-2.6,3.4-2.5c1.1,0,2.1,0,3.2,0c0.8,0,1.8-0.4,1.8-1.3
			c0.1-3.2,2.3-3,4.4-2.9c0,5.5,0,10.9,0,16.4c-6.2,5.4-12.1,11.2-17.5,17.5C348.1,230.2,342.6,230.2,337.2,230.2z"/>
		<path fill="#60408C" d="M218.6,230.2c0-2,0-4.1,0-6.1c0-1.7,0.6-2.3,2.3-2.4c1.9-0.1,4.2,0.9,5.6-0.6c1.3-1.4,0.4-3.7,0.5-5.6
			c0.1-1.6,0.7-2.2,2.3-2.2c1.9-0.1,4.2,0.8,5.6-0.5c1.4-1.4,0.5-3.7,0.6-5.6c0.1-1.7,0.8-2.3,2.4-2.3c5.7-0.3,5.8-0.3,6-6
			c0.1-1.9,0.9-2.4,2.6-2.4c5.6-0.2,5.7-0.2,5.9-5.9c0.1-1.8,0.7-2.5,2.5-2.5c5.9-0.2,6.1-0.3,5.9-6.1c-0.1-2.7,0.9-3.6,3.5-3.4
			c3.6,0.2,7.2,0,10.8,0c-0.4,0.6-1.1,1.1-1.2,1.7c-0.3,2.1-0.9,3.8-3.5,4c-0.3,0-0.8,0.6-0.8,0.9c-0.2,1.9-1.8,2.3-2.9,3.3
			c-1.9,1.7-3.7,3.6-5.5,5.4c-1,1-1.1,2.7-3,2.8c-0.8,0-1.4,0.8-1.5,1.7c-0.1,2.3-1.6,2.4-3.3,2.3c-0.9,0-1.8,0-2.6,0
			c-1.7,0.1-2.6,1-2.6,2.7c0,1.1,0,2.3,0,3.4c0,1.3-0.3,2.3-1.8,2.4c-0.3,0-0.7,0-0.7,0.2c-1,3.1-4.8,3.7-5.9,6.6c0,0.1,0,0.2,0,0.3
			c-2.7,1.2-3.7,4.2-6.1,5.6c-1,0.6-2.2,0.9-2.2,2.2c-0.1,1.8-1.2,2.2-2.7,2.1c-0.5,0-1.1,0-1.6,0c-3.8,0-4.2,0.4-4.3,4.2
			C221.5,230.2,220,230.2,218.6,230.2z"/>
		<path fill="#7145A6" d="M214.4,18.5c0,2.1,0.1,3.6-2.7,4.8c-1.9,0.8-3.7,3.5-5.4,5.3c-1,1-2,2-2.9,3c-1.9,1.9-3.9,3.6-5.6,5.6
			c-0.9,1.1-1.8,1.9-2.7,2.8c-2,1.9-4.1,3.7-5.8,5.8c-0.8,1.1-1.7,1.8-2.6,2.6c-2,2-4.2,3.8-5.9,6c-0.8,1-1.7,1.6-2.4,2.4
			c-2,2.2-4.4,4-6.2,6.3c-0.1,0.1,0,0.5-0.1,0.5c-2.7,1.1-3.8,4.1-6.1,5.6c-0.7,0.5-1.9,0.6-2,1.5c-0.2,3.3-2.5,2.8-4.5,2.8
			c0-3.7,0-7.4,0-11.1c1.1-1.2,2.6-0.7,4-0.8c3.8-0.2,5.1-1.4,5.2-5.1c0.1-3.3,0.1-3.3,3.5-3.4c3.6-0.2,4.9-1.5,4.8-5.1
			c-0.1-3.2,0-3.3,3.1-3.4c4.3-0.1,5.4-1.3,5.6-5.6c0.1-3.1,0.2-3.2,3.4-3.1c3.6,0.1,5-1.3,4.9-4.8c-0.1-3.4,0.1-3.7,3.4-3.9
			c4.3-0.3,5.1-1.3,5.1-5.5c0-1.1-0.3-2.3,0.5-3.3C206.6,18.5,210.5,18.5,214.4,18.5z"/>
		<path fill="#6C439F" d="M234,70.4c-0.2,0-0.4,0-0.5,0c-2.1,1.4-3.5-0.8-5.3-1.1c-2-2.3-1-5-0.8-7.5c0.1-1.2,1.5-0.9,2.5-0.9
			c6,0,5.8,0.4,5.7-5.8c0-2.1,0.8-2.8,2.8-2.7c6,0.1,5.8,0.4,5.7-5.7c0-2.1,0.8-2.8,2.8-2.7c6,0.1,5.8,0.4,5.6-5.8
			c0-1.9,0.6-2.7,2.6-2.7c5.7-0.1,5.8-0.2,5.9-5.8c0-2.1,0.9-2.7,2.9-2.7c6.1,0.1,5.6,0.3,5.6-5.8c0-0.9,0-1.8,0-2.6
			c3.7,0,7.4,0,11.1,0c1.2,1.4,1.3,2.7-0.5,3.7c-0.4,0.2-0.9,0.5-0.9,0.9c-0.1,2.7-1.9,3.2-4.1,3.3c-1.1,0-1.9,0.5-2,1.7
			c-0.1,1.5-0.9,2.4-2.5,2.6c-1.2,0.1-1.7,0.8-1.8,1.9c-0.1,1.4-0.9,2.2-2.4,2.3c-1.1,0.1-1.8,0.7-1.9,1.8c-0.1,1.4-0.8,2.3-2.3,2.4
			c-0.5,0.1-1.4,0.2-1.4,0.5c0.3,3.5-4.1,3-4.8,5.6c-0.2,0.6-0.2,1.6-0.7,1.6c-3.5-0.2-2.9,4.3-5.6,4.8c-1.3,0.3-2.1,0.8-2.2,2.2
			c-0.1,1.4-1,2-2.3,2.1c-0.5,0.1-1.4,0.2-1.4,0.5c0.3,3.5-4.2,3-4.8,5.7c-0.3,1.4-1.1,2.2-2.4,2.3c-1.3,0.1-1.9,0.9-1.7,2.1
			C235.2,68.1,234.5,69.2,234,70.4z"/>
		<path fill="#5C3E86" d="M311.8,204.8c0,4.7-0.1,9.5,0,14.2c0,2.1-0.8,2.8-2.8,2.8c-6.2,0-5.7-0.9-5.7,5.8c0,0.9,0,1.8,0,2.6
			c-4.2,0-8.5,0-12.7,0c0-1.9,0-3.9,0-5.8c-0.1-1.9,0.8-2.8,2.7-2.7c1.1,0,2.1,0,3.2,0c1.5,0,2-0.9,2.8-2.1c1.6-2.4,3.8-4.6,6.2-6.2
			c1.2-0.8,2.1-1.2,2.1-2.8c0-0.5,0-1.1,0-1.6C307.5,204.8,307.5,204.8,311.8,204.8z"/>
		<path fill="#7445AC" d="M175.8,18.5c0,1.7,0,3.3,0,5c0,1.9-1,2.9-2.9,2.9c-0.9,0-1.8,0-2.6,0c-1.9,0-2.9,1-2.9,2.9
			c0,0.9,0,1.8,0,2.6c0,1.9-1,2.9-2.9,2.9c-1.7,0-3.3,0-5,0c0-5,0-10.1,0-15.1c0-1.1,0.2-1.4,1.4-1.4
			C165.7,18.6,170.7,18.5,175.8,18.5z"/>
		<path fill="#573D7E" d="M353.6,230.2c0-2.2,0.4-3.6,2.7-5.2c2-1.5,5-3.3,5.7-6c0.7-2.6,4.1-1.3,4.4-3.9c0.3-3,2.8-2.3,4.7-2.4
			c0,5.4,0,10.8,0,16.1c0,1.1-0.2,1.4-1.4,1.4C364.3,230.2,358.9,230.2,353.6,230.2z"/>
		<path fill="#593E81" d="M354.1,191.6c1.5,1.2,1.2,2.9,0.8,4.3c-0.5,1.6-2,1.5-3.3,1.5c-0.6,0-1.2,0-1.8,0c-2.1-0.2-3.1,0.7-3,2.9
			c0.1,0.7,0,1.4,0,2.1c0.1,2.5-1,3.6-3.5,3.5c-0.5,0-1.1,0-1.6,0c-3.1,0-3.4,0.3-3.4,3.5c-0.1,4.8-0.2,4.9-4.9,4.9
			c-3.3,0-3.6,0.2-3.6,3.6c0,4.6-0.2,4.8-4.7,4.8c-3.6,0-3.7,0.2-3.8,3.7c0,1.2,0,2.5,0,3.7c-0.4,0-0.7,0-1.1,0
			c-1.7-2.3-1.7-6.1,0-8.5c-0.1-2.3,0-3.7,3-4.7c1.7-0.6,2.5-4.1,5.3-4.6c-0.1-2.3,0.9-3.6,3.4-3.6c0.3,0,0.8-0.6,0.8-0.9
			c-0.1-3.3,2.2-3.2,4.5-3.1c1-1.3,2.4-1.2,3.8-1.3c2.7-0.2,3.2-0.7,3.4-3.4c0.1-1.4-0.1-2.9,1.3-3.8c0.8-1,1.8-1.3,3-1.2
			c2.3,0.1,4.1-0.4,4.7-2.9C353.4,191.8,353.8,191.7,354.1,191.6z"/>
		<path fill="#6F43A3" d="M245.1,18.5c0.1,2.6,0.1,5.1-3.4,5.5c-0.3,0-0.6,0.6-0.8,1c-0.1,0.2,0,0.6-0.2,0.8
			c-2.1,2.2-4.2,4.3-6.4,6.4c-0.1,0.1-0.2,0-0.2,0.1c-2,1.9-4.2,3.8-5.7,5.8c-1.4,1.8-2.4,2.7-4.5,2.7c-4.1,0-4.2,0.1-4.2,4.2
			c0,2.1-0.3,3.9-2.9,4.3c-0.1,0-0.2,0-0.2,0.1c-0.9,2.9-4.4,3.5-5.4,6.2c-0.8,2-2.3,2.2-4,2.2c-4.3,0.1-4.3,0.1-4.3,4.3
			c0,2.2-0.5,3.9-3,4.2c-0.6,0.1-1.1,0.4-1.1,0.9c-0.3,2.1-1.4,3.1-3.4,3.4c-0.3,0-0.8,0.6-0.8,0.9c-0.4,3.2-2.7,3.3-5.1,3.1
			c-1.9-0.1-2.7,0.7-4,2.3c-1.7,2.1-3.5,4.7-6.1,6c-1.5,0.8-1.9,1.5-1.9,2.9c0.1,2.7,0.4,5.5-3.4,6c-0.3,0-0.6,0.5-0.7,0.7
			c-0.4,3.3-2.8,3.4-5.3,3.2c-1.8-0.1-3.1,0.2-3.6,2.4c-0.6,2.5-3.1,1.7-5,1.9c0-0.4,0-0.7,0-1.1c2.2,0.1,4.1-0.1,4.3-2.9
			c0.1-1.1,1.1-1.3,2-1.3c1.2,0,2.5,0,3.7,0c1.4,0,2.4-0.6,2.6-2.1c0.1-1.3,0.7-2.1,2.1-2.2c1.6-0.1,2.2-1.3,2.2-2.8
			c0-1,0-1.9,0-2.9c0-0.5-0.1-1.5,0.1-1.5c2.9-0.8,3.6-4.2,6-5.4c1.1-0.6,2.1-0.9,2.2-2.2c0.1-1.8,1.2-2.1,2.7-2c1,0,1.9,0,2.9,0
			c0.4,0,1.2,0,1.3-0.2c1.2-2.8,4.5-3.8,5.8-6.4c0.5-0.9,0.6-1.8,1.8-1.9c1.9-0.1,2.5-1.3,2.5-3.1c0-0.4,0-0.9,0-1.3
			c0-4,0-4.1,4.1-4c2.3,0,3.5-0.5,4.7-2.9c0.9-1.9,3.3-4.2,5.1-5.1c2.5-1.3,3.1-2.6,3-5c-0.1-3.9,0-4,3.9-3.9c2.4,0,4.5,0,4.7-3.2
			c0-0.3,0.5-0.9,0.8-0.9c2.3-0.1,2.5-2.3,3.6-3.3c1.7-1.6,3.3-3.3,4.9-4.9c1.3-1.2,3.2-1.7,3.4-3.9c0-0.3,0.6-0.7,1-0.7
			c2.9-0.2,3-2.2,2.9-4.3C244.4,18.5,244.7,18.5,245.1,18.5z"/>
		<path fill="#593E81" d="M371,180.5c-0.3,0-0.5,0-0.8,0c-5.9,0-6,0-6.6,5.9c-0.2,1.9-1.2,2.6-3,2.6c-2.2,0-4.4-0.2-6.5,0.5
			c-0.5-0.5-0.4-1.1,0-1.6c-0.1-2.3,0-3.7,3-4.7c1.7-0.6,2.5-4.1,5.3-4.6c-0.1-2.3,0.9-3.6,3.4-3.6c0.3,0,0.8-0.6,0.8-0.9
			c-0.1-3.3,2.2-3.2,4.5-3.1C371,174.1,371,177.3,371,180.5z"/>
		<path fill="#6B429D" d="M227.1,94.7c-2,0-4.1,0-6.1,0c-1.7,0-2.4,0.6-2.4,2.3c-0.1,1.9,0.9,4.2-0.6,5.6c-1.4,1.4-3.7,0.4-5.6,0.5
			c-1.5,0.1-2.2,0.7-2.3,2.2c-0.1,1.9,0.8,4.2-0.5,5.6c-1.4,1.5-3.7,0.5-5.6,0.6c-1.7,0.1-2.3,0.7-2.4,2.4c-0.3,5.8-0.3,5.9-6,6.1
			c-1.8,0.1-2.4,0.8-2.5,2.5c-0.2,5.7-0.2,5.8-5.9,5.9c-2,0-2.6,0.8-2.6,2.7c-0.1,5.6-0.2,5.7-5.8,5.8c-2.1,0-2.7,0.9-2.7,2.9
			c0,5.5-0.1,5.6-5.6,5.6c-2.3,0-2.8,0.9-2.8,3c0.1,6,0.7,5.5-5.5,5.5c-1,0-1.9,0-2.9,0c0-0.4,0-0.7,0-1.1c0.4,0,0.7,0,1.1,0
			c5.7,0,5.7,0,6.4-5.5c0.2-1.9,1.2-2.9,3.1-2.9c0.5,0,1.1,0,1.6,0c3.7,0,3.7,0,3.8-3.8c0-4,0.7-4.6,4.6-4.6c3.8,0,3.8,0,3.9-3.8
			c0-4,0.6-4.7,4.5-4.7c3.9,0,3.9,0,3.9-4c0-3.8,0.7-4.5,4.5-4.5c4,0,4,0,4-3.9c0-3.9,0.7-4.5,4.7-4.6c3.8,0,3.8,0,3.8-3.8
			c0-4,0.7-4.6,4.6-4.7c3.9,0,3.9,0,3.9-3.7c0-4.1,0.6-4.7,4.8-4.7c1.8,0,3.5,0,5.3,0C227.4,94,227.3,94.4,227.1,94.7z"/>
		<path fill="#6B439E" d="M234,70.4c0.2-1.4,0.4-2.8,0.6-4.2c0-0.3,0-0.9,0.2-1c2.7-1,3.7-3.8,5.8-5.4c0.3-0.3,1-0.2,1.2-0.5
			c1.2-2.1,3.2-3.4,4.8-5.1c1.2-1.2,1.8-3,3.8-3.5c0.4-0.1,0.7-0.8,0.9-1.2c0.2-0.4,0.2-1.1,0.4-1.2c2.9-0.9,3.6-4.4,6.3-5.6
			c0.2-0.1,0.4-0.1,0.5-0.2c0.9-3.1,4.6-3.6,5.8-6.5c0.1-0.2,0.1-0.5,0.2-0.5c3-0.8,3.6-4.4,6.3-5.5c0.9-0.3,1.6-0.9,1.8-1.8
			c0.3-1.5,1.2-2.1,2.7-2.5c2.9-0.7,5.3-4,5.5-7.2c0.5,0,1.1,0,1.6,0c0,1.9-0.9,3.3-1.8,5c-1.4,2.6-3.1,2.9-5.3,4
			c-1.9,0.9-3.5,3.4-5.3,5.2c-1,1-2.1,2.1-3.1,3.2c-1.8,1.9-3.7,3.6-5.5,5.5c-0.9,1-1.6,2-2.8,2.9c-2,1.7-4.1,3.7-5.7,5.8
			c-0.9,1.1-1.8,1.8-2.7,2.7c-2,1.8-4,3.7-5.7,5.8c-0.9,1-2.2,1.9-2.6,2.7c-1.6,2.6-5,3.5-6,6.4C235.2,68.6,234.8,69.6,234,70.4z"/>
		<path fill="#7145A6" d="M202.8,18.5c0,1.7,0.1,3.3,0.4,5c0.6,3.4-0.8,5-4.3,5.1c-0.5,0-1.1,0-1.6,0c-2.2-0.2-3.2,0.5-2.7,3
			c0.9,4.2-1.1,6-5.4,5.2c-2.2-0.4-3,0.2-2.9,2.3c0,0.8,0,1.6,0,2.4c-0.1,2.7-1.2,3.8-3.9,4c-0.7,0-1.4,0.1-2.1,0
			c-2.3-0.2-3.2,0.5-2.7,3.1c0.8,3.8-0.6,5.3-4.6,5.4c-3.6,0.1-3.6,0.1-3.6,3.7c-0.1,3.7-1.1,4.7-4.8,4.7c-1.8,0-3.5,0-5.3,0
			c0-0.4,0-0.7,0-1.1c1.1-1.4,2.6-1.2,4.1-1.3c3-0.2,3.4-0.6,3.6-3.6c0.3-4,0.8-4.8,4.7-4.8c2.7,0,3.8-1.4,4.5-3.6
			c0-1.2,0-2.5,0-3.7c1.1-1.4,2.6-1.2,4.1-1.3c2.9-0.2,3.5-0.7,3.6-3.6c0.1-1.5-0.1-3,1.3-4.1c1.2,0,2.5,0,3.7,0
			c2.3-0.5,3.7-1.9,4.2-4.2c0-5.2,0.2-5.5,5.4-6.4c1.7-0.3,2.8-1.4,3.1-3.1c0.1-1,0-2.1,0.1-3.2C202,18.5,202.4,18.5,202.8,18.5z"/>
		<path fill="#7145A7" d="M176.3,48.2c1.1,3.7,0.3,4.7-3.4,4.8c-4.5,0.1-4.5,0.1-4.6,4.5c0,3.5-0.5,3.9-4,4c-1.7,0-3.3,0-5,0
			c0-1.4,0-2.8,0-4.2c2.4,0.1,4.7,0.1,5-3.1c0.1-0.8,0.9-1,1.6-1.2c1-0.2,2-0.7,2.1-1.7c0.4-2.3,1.9-2.6,3.9-2.5
			C173.4,48.8,174.9,48.6,176.3,48.2z"/>
		<path fill="#593E83" d="M320.2,221.7c0,2.8,0,5.6,0,8.5c-2.8,0-5.6,0-8.5,0c0-1.9,0-3.9,0-5.8c0-1.7,0.9-2.6,2.6-2.6
			C316.4,221.7,318.3,221.7,320.2,221.7z"/>
		<path fill="#654295" d="M362.6,27c0-2.8,0-5.6,0-8.5c0.2,0,0.3,0,0.5,0c2.6,0,6.2-0.9,7.7,0.4c1.3,1.2,0.3,4.9,0.3,7.5
			C368.2,26.5,365.4,27.3,362.6,27z"/>
		<path fill="#644295" d="M167.8,221.7c0.3,2.9-0.5,5.6-0.5,8.5c-2.3,0-4.6-0.1-6.9,0c-0.9,0-1.1-0.2-1.1-1.1c0.1-2.5,0-4.9,0-7.4
			C162.2,221.7,165,221.7,167.8,221.7z"/>
		<path fill="#FEFEFE" d="M279,174.7c-0.2,0-0.3,0-0.5,0c-1.2,0.5-2.5,0.4-3.8,0.7c-4.5,0.5-9,0.2-13.4,0.3c-8.7,0.1-17.4,0-26.1,0
			c-4.7,0-4.9-0.2-4.1-4.8c-0.1-1.2-0.2-2.5-0.2-3.7c0-24.5-0.1-49,0.1-73.5c0-5.4-0.4-10.7,0-16.1c0.1-0.7,0-1.4,0.5-2
			c0.2,0,0.3,0,0.4-0.1c1-1,2.3-0.8,3.5-0.7c12,0.5,24,0.1,36.1,0.2c0.8,0,1.6,0,2.3,0.2c0.7,0.2,1.4,0.3,2,0.8
			c2.3,0.6,4.6,1.1,6.8,1.7c1.7,0.4,3.6,0.5,4.5,2.4c0,0.5-0.2,1-0.7,1.3c0.6-0.2,0.6-0.8,0.8-1.1c1-0.4,1.5,0.4,2.2,0.8
			c0.6,0.6,1.2,1.1,2,1.4c1.5,1.2,2.8,2.6,3.7,4.3l0,0c1,0.6,1.6,1.5,2,2.6c1,3.2,2.1,6.4,2.6,9.8c0.3,1.9-0.4,3.8-0.3,5.7
			c0,1-0.7,1.9-1.7,2.5c-0.6,0.4-0.4,1-0.4,1.5c0.1,2.5-1.5,4.3-2.7,6.3c-1.6,0.7-2.2,2.4-3.4,3.5c-2,1.8-4.5,2.5-6.8,3.7
			c0,0,0,0.2,0.1,0.2c2.2,1.2,4.8,0.9,7,2.1c1.1,0.7,2,1.4,2.2,2.7c1.3,0.5,2.4,1.5,3.2,2.6c0.2,0.5,0.2,1,0.1,1.5
			c-0.2,0.8-1.1,1.3,0.5,2.1c2.8,1.4,3.2,2.7,2.3,5.2c-0.1,0.5-0.4,1.2,0.7,0.8c0.2-0.1,0.4-0.2,0.6-0.2c0.7,0,1.1,0.5,1.5,0.9l0,0
			c0.2,0.7,0,1.6,0.9,2.1c0.3,0.5,0.6,1,0.2,1.6c0,0.2,0,0.4,0.1,0.5c0.9,1.9,0.3,3.8,0.4,5.7c0,0.3,0,0.6-0.1,0.9
			c-0.2,0.4-0.1,0.9-0.5,1.1c-1,5.2-3.3,9.9-6.6,14c0,0.5-0.2,0.7-0.7,0.6c-3.1,2.4-6.4,4.3-10,5.8
			C284.3,174.7,281.6,174.7,279,174.7z"/>
		<path fill="#604086" d="M282.7,176.2c1.9-0.2,4,0.5,5.8-0.5c0.8,0,1.9-0.9,2.2,0.4c0.3,1.1-0.9,1.3-1.7,1.7
			c-1.8,0.9-3.8,0.6-5.7,0.4C282,178.1,281.9,177.2,282.7,176.2z"/>
		<path fill="#FAF3FC" d="M302.8,140.2c-0.5-0.2-1.1-0.4-1.6-0.5c-0.5-3-2.9-5.1-3.6-8c0.1-0.2,0.3-0.4,0.5-0.6
			c0.3,0.2,0.6,0.4,1,0.7c0.8,0.2,1,0.8,1.1,1.5c0.3,0.6,0.7,1.1,1,1.7c1,0.4,0.7,1.5,1,2.2C302.4,138.2,302.6,139.2,302.8,140.2z"
			/>
		<path fill="#604091" d="M296.4,166.8c0.2-0.2,0.4-0.4,0.7-0.6c0.7,0.6,2.2-0.4,2.4,1.1c0.1,0.8-0.4,1.4-1.2,1.6
			C296.5,169.4,296.7,167.9,296.4,166.8z"/>
		<path fill="#573D7A" d="M279,174.7c2.5-0.5,5.1-0.9,7.4-2.1c-0.2,0.5-0.4,1-0.6,1.5C283.6,174.6,281.3,175.6,279,174.7z"/>
		<path fill="#61418A" d="M302.2,137.2c-0.6-0.6-0.8-1.4-1-2.2c0-0.2,0-0.4,0.1-0.6c0.9,0.2,1.2-0.6,1.8-1.1
			c0.6,1.4-0.7,2.1-0.8,3.2C302.2,136.8,302.2,137,302.2,137.2z"/>
		<path fill="#59407A" d="M303.8,151.3c0-0.2,0-0.3,0-0.5c0.6-2.1-0.3-4.3,0.5-6.3c0.8,2.3,0.8,4.6,0,6.9
			C304.2,151.7,304,151.7,303.8,151.3z"/>
		<path fill="#623F8E" d="M304.4,144.5c-0.2,2.1,0.5,4.3-0.5,6.3c0-2.1,0-4.2,0-6.4C304.1,144.5,304.2,144.5,304.4,144.5z"/>
		<path fill="#593A7F" d="M303.9,143.9c-0.2-0.5-0.4-1-0.7-1.6c-0.2-0.2-0.1-0.4,0.2-0.5C305.5,142.1,304,143.2,303.9,143.9z"/>
		<path fill="#FAF3FC" d="M303.4,141.8c-0.1,0.2-0.1,0.4-0.2,0.5c-0.8-0.6-0.9-1.3-0.5-2.1C303.3,140.6,303.2,141.3,303.4,141.8z"/>
		<path fill="#563D7D" d="M303.8,151.3c0.2,0,0.3,0,0.5,0c0.1,0.6,0.1,1.3,0.2,1.9c-0.8-0.1-0.6-0.7-0.8-1.1
			C303.8,151.9,303.8,151.6,303.8,151.3z"/>
		<path fill="#634091" d="M293.8,127.4c-3.1-2.3-6.7-3.3-10.4-4.2c-0.2,0-0.3-0.1-0.4-0.3c0.1-0.3,0.1-0.5,0-0.7
			c0-0.2,0.1-0.3,0.3-0.4c3.4-0.8,6.2-2.5,8.7-5c0.7-0.7,1.2-1.7,2.4-2c1.8-0.7,1.6-3.3,3.7-3.6c1,2.2,0.8,3.8-1.9,4.4
			c-2.3,0.5-2.9,2.4-4,4.1c-0.1,0.1-0.3,0.2-0.4,0.3c0.2-0.1,0.3-0.2,0.4-0.3c2.3-0.2,4.1-2,6.5-2.1c1.3,0,1.8-1.4,2-2.7
			c0.2-1.2-0.1-2.7,1.5-3.2c-0.4,2.1-1.6,4,0.7,6.1c1.2,1.1,0.8,3.8,0.1,5.5c-0.9,2-3.3,1.1-4.9,1.3
			C296,124.9,294.7,125.7,293.8,127.4z"/>
		<path fill="#654392" d="M297.8,107.3c0.8-2.6,1-5.4,1.2-8.1c-0.2-1.2-0.7-2.5,0.4-3.6c1.3,0.2,1.2,1.3,1.3,2.3c0,1.8,0,3.5,0,5.3
			c0.1,1.4-0.4,2.5-0.9,3.7C299.3,108.4,298.6,107.7,297.8,107.3z"/>
		<path fill="#654392" d="M298,111.1c-1.2,1.2-1.1,3.9-3.7,3.6c0.6-2.2,2.2-3.9,3.1-5.9C297.6,109.6,297.8,110.4,298,111.1z"/>
		<path fill="#663F9B" d="M300.6,103.2c-1.2-2.3,0.1-5.1-1.1-7.4c-0.3-0.4-0.3-0.7,0-1.1c0.4,0,0.7,0,1.1,0
			C301.5,97.6,301.5,100.4,300.6,103.2z"/>
		<path fill="#64419B" d="M230.3,128.6c0-2.6,0-5.3,0-7.9c0-8.6,0-17.3,0-25.9l0,0c0.4-0.2,0.6-0.1,0.8,0.3
			c0.1,11.1,0.1,22.1,0,33.2C230.9,128.7,230.7,128.8,230.3,128.6z"/>
		<path fill="#634298" d="M230.3,128.6c0.2,0,0.3,0,0.5,0c0.4,0.5,0.3,1.2,0.3,1.8c0,12.7,0,25.5,0,38.2c0,0.6,0.1,1.2-0.3,1.8
			c-0.7-0.9-0.5-2-0.5-3c0-5.9,0-11.7,0-17.6C230.3,142.7,230.3,135.7,230.3,128.6z"/>
		<path fill="#634A8B" d="M230.8,170.4c0-13.9,0-27.9,0-41.8c0-11.3,0-22.6,0-33.9c-0.4-1.4-0.4-2.8,0-4.2c0-1.4,0-2.8,0-4.2
			c-0.4-2.6-0.4-5.3,0-7.9c-0.5-1-0.3-1.9,0.7-2.6c0,30.7,0,61.3,0,92c0,1.1-0.1,2.1-0.1,3.2c-0.2,0.2-0.3,0.2-0.5,0
			C230.8,170.8,230.8,170.6,230.8,170.4z"/>
		<path fill="#5F4586" d="M230.8,170.9c0.2,0,0.3,0,0.5,0c0.3,4.2,0.3,4.3,4.7,4.2c13,0,26-0.1,39.1-0.1c1-0.2,1.9-0.4,2.9,0.1
			c-1.3,0.8-2.8,0.4-4.2,0.5c-0.9,0.5-1.9,0.2-2.8,0.2c-11.7,0-23.3,0-35,0c-1.5-0.1-3,0.3-4.5-0.3
			C228.8,174.4,229.9,172.6,230.8,170.9z"/>
		<path fill="#5C3D8C" d="M235.6,175.7c12.7,0,25.4,0,38.1,0c-1,0.7-2.2,0.5-3.3,0.5c-11.2,0-22.5,0-33.7,0c-0.4,0-0.7,0-1.1,0
			C235.2,176.1,235.2,175.9,235.6,175.7z"/>
		<path fill="#5A4084" d="M235.6,175.7c0,0.2,0,0.3,0,0.5c-1.4-0.1-2.9,0.3-4.2-0.5C232.8,175.7,234.2,175.7,235.6,175.7z"/>
		<path fill="#674D8C" d="M295.3,86.9c-1.3-1.3-2.7-2.6-4-3.9c-0.9-0.1-1.3-0.8-1.8-1.4c-0.7-0.4-1.4-0.7-2.1-1.1
			c-0.3,0.3-0.4,0.2-0.5-0.2c-1.2-1.3-3.1-1.4-4.3-2.5c1.9-0.9,3.2,0.5,4.8,1c1.9,2.2,5.2,2.7,6.7,5.4
			C294.6,85.1,295.2,85.9,295.3,86.9z"/>
		<path fill="#654890" d="M299.6,94.7c0,0.4,0,0.7,0,1.1c-0.7,1.1-0.5,2.3-0.6,3.5c-0.5-4.4-1.9-8.5-3.8-12.4c0.4,0,0.8,0,1.1-0.1
			c1.6,0.3,0.7,1.9,1.6,2.6C298.5,91.2,299.1,93,299.6,94.7z"/>
		<path fill="#6640A3" d="M298,89.4c-1-0.6-1.1-1.7-1.6-2.6C298,86.8,298,86.8,298,89.4z"/>
		<path fill="#6B429D" d="M228.2,90.5c0-1.6,0.1-3.2-0.7-4.8c-0.6-1.1-0.5-2.5,0.2-3.7c0.9-0.8,0.1-2.2,1.1-3.1
			c1,0.9,0.2,2.3,1.1,3.1c0,4,0.2,8.1-0.9,12.4C227.8,93,228.3,91.7,228.2,90.5z"/>
		<path fill="#6C43A0" d="M272.1,75.6c-13.4,0-26.8,0-40.2,0c0-0.2,0-0.3,0-0.5c1.1-1.1,2.6-0.7,3.9-0.8c2.1,0.6,4.3,0.5,6.5,0.5
			c9.1,0,18.3,0,27.4,0C270.4,74.9,271.6,74.2,272.1,75.6z"/>
		<path fill="#6B429D" d="M230.8,78.3c0,2.6,0,5.3,0,7.9C230,83.6,230,81,230.8,78.3z"/>
		<path fill="#61418E" d="M235.6,75.1c-1.2,0-2.5,0-3.7,0c-0.2-0.2-0.3-0.4-0.5-0.5c0.2,0,0.3,0,0.5,0c1.1-1.2,2.2-1.4,3.6-0.4
			C235.7,74.5,235.7,74.8,235.6,75.1z"/>
		<path fill="#6B429D" d="M230.8,90.5c0,1.4,0,2.8,0,4.2c-0.2,0-0.4,0-0.5,0C230.4,93.3,229.9,91.8,230.8,90.5z"/>
		<path fill="#674392" d="M273.7,71.4c-1.1-0.1-2.4,0.3-4-0.5c2.8-0.9,5.3-0.3,7.7-0.5c0.6,0.1,1.2,0.3,1.8,0.4
			c0.7,0.2,2-0.1,1.8,0.9c-0.3,1.2-1.7,0.9-2.4,0.4C276.9,71.3,275.3,71.5,273.7,71.4z"/>
		<path fill="#583984" d="M275.8,76.1c-0.6,0.1-1.2,0.3-1.7-0.2c-0.3-0.3-0.2-0.5,0.1-0.7c0.9,0,1.7,0,2.6,0
			C276.5,75.5,276.1,75.8,275.8,76.1z"/>
		<path fill="#6B439E" d="M235.6,74.6c-1.2,0-2.5,0-3.7,0c-0.2-1.4-1-2.3-2.1-3c-0.8-0.5-1.4-1.2-1.6-2.2c1.2-1,2.4-1.1,3.5,0.2
			c0.5,0.6,1.1,0.9,1.8,0.9c-0.3,0.7-0.7,1.6,0.4,2c0.7,0.2,1.7,0.4,1.9-0.7c0.3-1.6,1.5-1.2,2.5-1.2c4.7,0,9.5,0,14.2,0
			c1.2,0.1,2.4-0.3,3.7,0.4c-0.6,0.9-1.5,0.5-2.2,0.6c-0.5,0.1-1.3-0.1-1.4,0.4c-0.5,3.1-3.1,1.9-4.7,2.1c-3.4,0.5-6.8-0.5-10.2,0.6
			C237,75,236.3,75,235.6,74.6z"/>
		<path fill="#644199" d="M235.6,74.6c0.7,0,1.4,0,2.1,0c10.9,0,21.8,0,32.7,0c1.3,0,2.6-0.1,3.9,0.5c0,0.2-0.1,0.5-0.1,0.7
			c-0.7-0.1-1.4-0.2-2-0.2c-1-0.7-2.2-0.5-3.3-0.5c-11.1,0-22.1,0-33.2,0C235.6,75,235.6,74.8,235.6,74.6z"/>
		<path fill="#593E83" d="M354.1,187.9c0,0.5,0,1.1,0,1.6c0,0.7,0,1.4,0,2.1c0,0.8,0,1.6,0,2.4c0,1.6-0.8,2.4-2.4,2.4c-2,0-4,0-6,0
			c0-2,0-4,0-6.1c0-1.6,0.8-2.4,2.4-2.4C350.1,187.9,352.1,187.9,354.1,187.9z"/>
		<path fill="#593E83" d="M345.6,196.3c0,2,0,4,0,6.1c0,1.6-0.8,2.4-2.4,2.4c-2,0-4,0-6.1,0c0-2,0-4,0-6.1c0-1.6,0.8-2.4,2.4-2.4
			C341.6,196.4,343.6,196.3,345.6,196.3z"/>
		<path fill="#623F8E" d="M300.1,133.4c-0.4-0.5-0.7-1-1.1-1.5C300.7,131.4,300.4,132.4,300.1,133.4z"/>
		<path fill="#FAF3FC" d="M296.4,131.2c0.2-0.4,0.4-0.8,0.6-1.2c0.5,0.2,0.9,0.6,1,1.1l-0.2,0.2
			C297.3,132.2,296.8,132.2,296.4,131.2z"/>
		<path fill="#644192" d="M244,177.8c1.4,0,2.8,0,4.2,0c0.4,0.2,0.4,0.4,0,0.5c-3.9,0-7.7,0-11.6,0c0-0.2,0-0.4,0-0.5
			C239.1,177.8,241.6,177.8,244,177.8z"/>
		<path fill="#7145A7" d="M185.3,35.5c0,2.1,0,4.2,0,6.3c0,1.7-0.9,2.6-2.6,2.6c-2.1,0-4.2,0-6.3,0c0.3-2.1,0.4-4.3,3.3-4.5
			c0.6,0,1.2-0.6,1.2-1.2C181,35.9,183.2,35.7,185.3,35.5z"/>
		<path fill="#7145A7" d="M193.2,31.2c0.6,1.4,1,2.9-0.3,4.1c-1.2,1.1-2.6,0.7-3.9,0.1C189.2,32.8,190.6,31.4,193.2,31.2z"/>
		<path fill="#63408F" d="M248.3,178.3c0-0.2,0-0.4,0-0.5c1.1,0,2.2,0,3.2,0c0,0.2,0,0.4,0,0.5C250.4,178.3,249.3,178.3,248.3,178.3
			z"/>
		<path fill="#705E8F" d="M277.9,175.2c-1,0-1.9-0.1-2.9-0.1c1.1-0.5,2.2-0.5,3.4-0.4C278.3,174.9,278.1,175,277.9,175.2z"/>
		<path fill="#63408F" d="M284.2,132.9c6,4.8,8.1,11,6.4,18.5c-0.5,2.5-1.5,4.8-3.7,6.3c-2.2,2.1-5,3.2-7.7,4.5
			c-3.5,1.1-7,1.6-10.6,1.6c-8-0.2-16,0.2-24-0.2c-0.4-1.6,0.9-1.7,1.9-1.7c3.1,0,6.1-0.6,9.1-1.1c2-0.3,2.9-1,3.1-3.1
			c0.3-4.2,1.6-5.5,5.8-6c1.7-0.2,2.4-1,2.6-2.7c0.5-4.1,1.7-5.4,5.7-5.8c1.9-0.2,2.7-1,2.7-2.8c0-1.2,0.4-2.3,0.9-3.3
			c0.9-2,1.8-2.2,3.9-1c-0.7-2.3-0.5-2.6,2.8-3.9C283.6,132.3,284,132.5,284.2,132.9z"/>
		<path fill="#674195" d="M283.8,93.7c0.1,0.2,0.3,0.4,0.4,0.5c0.4,2.2,1.5,4.3,1.8,6.5c0.5,3.2-1.1,6-2.2,8.8
			c-0.3,0.7-0.7,1.4-0.8,2.2c-0.1,0.3-0.2,0.5-0.3,0.7c-0.4,0.6-0.9,1-1.6,1.2c-2.9,1.6-5.9,3-9.2,3.6c-8.2,1.6-16.4,0.6-24.6,0.8
			c-0.9,0-1.8,0.1-2.6-0.2c-0.8-0.7-0.3-1.7-0.4-2.6c0.3-1.6,1.4-2.2,2.9-1.9c3,0.5,6.1,0.1,8.6,0.2c-1.5,0-3.5,0-5.6,0
			c-0.9,0-2,0.1-2.1-1.1c-0.1-1.1,0.9-1.7,1.9-1.8c1.9-0.1,3.9-0.1,5.8-0.2c3.4-0.2,3.7-0.4,3.8-3.9c0.2-4,0.6-4.4,4.7-4.6
			c3.3-0.1,3.6-0.1,3.9-3.3c0.3-3,2-4.7,4.5-5.9c1.7-0.5,3.5,0.4,5.1-0.7c0.2-0.1,0.4-0.3,0.7-0.4c0.7-0.4,1.5-0.2,2.2-0.5
			c0.3,0,0.5,0,0.7,0.1C282.3,92,282.9,93,283.8,93.7z"/>
		<path fill="#684295" d="M279,92.6c-0.2,0-0.4,0-0.5,0c-10.4,0.1-20.9,0-31.3,0c-0.9,0-1.8,0-2.5-0.7c-0.5-0.7-0.3-1.4-0.3-2.2
			c0.4-1.4,1.7-1.2,2.6-1.1c7.9,1,15.9-1,23.8,0.6c0.4,0,0-0.5,0-0.1c0,0-0.1,0-0.3,0c-0.5,0-1.1,0-1.3-0.6c0-0.3,0-0.5,0.1-0.8
			c0.9-0.8,2-0.3,3-0.5c0.1,0,0.3,0,0.4,0c2.8,0,5.1,1.2,7.4,2.6c0.2,0.7,1.4,0.7,1,1.7l0,0C280.4,92.1,279.8,92.5,279,92.6z"/>
		<path fill="#66418E" d="M244,145c-0.2-4.9-0.2-9.9,0-14.8c0.2-0.2,0.5-0.3,0.7-0.2c0.3,0.1,0.5,0.2,0.7,0.3
			c1.2,0.6,2.5,0.7,3.8,0.7c6.5,0,13,0,19.5,0c0.8,0,1.8,0.4,2.2-0.8c0.1-0.2,0.3-0.4,0.4-0.5c1.6-0.4,3.1,1,4.8,0.5
			c2.8-1.2,5.4-0.2,5.9,2.3c-2,1.6-4.1,1.8-6.7,1.9c-5,0.1-10.1-1.5-15.1-0.2c-4.3-0.4-8.6-0.1-12.9-0.2c-0.9,0-1.6,0.2-1.8,1.2
			c-0.1,0.4-0.2,0.8-0.3,1.3c-0.2,1.6-0.1,3.3-0.1,5c-0.1,1.2,0.3,2.5-0.5,3.6C244.6,145.1,244.3,145.2,244,145z"/>
		<path fill="#66498D" d="M244.6,89.4c0,0.7,0,1.4,0,2.1c0.7,0.6,0.9,1.3,0.9,2.2c0,0.5,0.1,1,0.1,1.5c0.5,5.5,0.2,11,0.2,16.5
			c0,1.2-0.6,2.2-1.2,3.1c0,0.9,0,1.8,0,2.6c0.1,0.1,0.2,0.3,0.2,0.4c0,0.1,0,0.2-0.1,0.2c-0.2,0.1-0.4,0.1-0.6-0.1
			c-0.1-9.9-0.1-19.9-0.2-29.8c0-1.2,0.5-1.5,1.6-1.5c8,0.1,16-0.3,24,0.2c0.2,0.1,0.3,0.3,0.3,0.4c0,0.2-0.1,0.3-0.3,0.5l0,0
			c-0.6,0.7-1.3,1.2-2.3,1c-5.8-0.8-11.5,0.2-17.3,0C248.1,88.9,246.2,87.9,244.6,89.4z"/>
		<path fill="#FDFDF9" d="M282.2,132.3c-1.7-1.4-3.9-1.5-5.9-2.2c-0.5-1-0.4-1.6,1-1.5c2.2,0.1,4.3,0,6.5,0v0c0.5,1.4,1.5,2,3,2.1
			c2.5,0.3,4.3,2.8,4.1,5.2c0,0.4,0,0.7-0.5,0.8c-0.8,0.1-1-0.5-1.2-1.1c-0.8-2.4-2.4-3.2-4.8-2.8c-0.3,0-0.7,0-1-0.1
			C282.9,132.5,282.4,132.7,282.2,132.3z"/>
		<path fill="#FDFEFB" d="M295.9,163c-1.8,0.6-3.6,1.5-2.7-1.9c0.1-0.5-0.1-1.1-0.6-1.4c-0.7-0.4-1.3,0-1.6,0.5
			c-1.4,2.9-3.9,1.6-6.1,1.8c2.3-0.7,3.7-2.1,5-4.2c1.4-2.3,3.8-1.5,4.8,1.2c0.4,1.2,0.3,2.7,1.8,3.3
			C296.5,162.9,296.4,163.2,295.9,163z"/>
		<path fill="#624A83" d="M244,145c0.2,0,0.3,0,0.5,0c1.1,0.6,1.2,1.7,1.2,2.8c0.1,4.1,0.1,8.3,0,12.4c0,1.1-0.3,2.1-1.2,2.8
			c0.9,0.7,2,0.5,3.1,0.5c7.3,0,14.6,0,22,0c3.6,0,6.9-1.3,10.4-1.6c0.1,0.1,0.2,0.2,0.1,0.3c0,0.1-0.1,0.2-0.1,0.2
			c-3.1,1.2-6.2,1.7-9.5,1.7c-8.2,0-16.4,0-24.5,0.1c-1.3,0-2.2,0-2.1-1.8C244,156.6,244,150.8,244,145z"/>
		<path fill="#553A7F" d="M271.6,129.6c0,0.2,0,0.4,0,0.5c-0.2,0.4-0.6,0.6-1.1,0.7c-0.9,0.1-1.8,0.1-2.8,0.1c-1,0-1.9,0-2.9,0
			c-5.7,0-11.3,0-17,0c-1.1,0-2.3,0.2-3.2-0.8c-0.2,0-0.4,0-0.6,0c-0.1-0.7,0.3-0.9,1-0.9C253.8,129.5,262.7,128.8,271.6,129.6z"/>
		<path fill="#FDFEF9" d="M296.4,131.2c0.5,0,1,0.1,1.5,0.1c1.4,2.7,3.6,5,3.3,8.3c0,0,0,0,0,0c-1.2,0.6-1.5-0.5-2.1-1.1
			c-0.1-0.9,1.4-1.9,0-2.5c-1.2-0.5-1.7-3.2-3.8-1.3c-0.6,0.5-1.3,0.1-1.3-0.7c-0.1-0.6-0.6-1.9,0.7-1.7
			C295.8,132.6,295.9,131.7,296.4,131.2z"/>
		<path fill="#674B8A" d="M282.6,112.1c-0.1-2.4,0.9-4.5,2-6.5c1.4-2.5,1.8-4.9,0.2-7.5c-0.7-1.1-1-2.6-0.5-4
			c2.2,3.2,2.1,6.8,2.1,10.4c-0.6,0.8,0.3,2-0.7,2.7c-0.5,1.7-1.6,3.2-2.5,4.6C283,112.4,282.9,112.4,282.6,112.1z"/>
		<path fill="#664A8F" d="M244.1,118c0.2,0,0.3,0,0.5,0c4.4-0.6,8.9-0.1,13.4-0.2c4.1-0.1,8.2,0.5,12.3-0.7c0.7-0.2,1.4-0.1,2.1,0.2
			c0.1,0.1,0.2,0.2,0.4,0.3c-2,0.8-4.1,0.9-6.2,1c-6.9,0.1-13.9,0.1-20.8,0.1C245.1,118.6,244.3,118.8,244.1,118z"/>
		<path fill="#664A8F" d="M272.6,116.4c2.8-1.2,5.9-2,8.5-3.7c0.6,0.8,0.1,1.3-0.5,1.7c-0.2,0.1-0.4,0.3-0.6,0.4
			c-2.3,1.4-4.6,2.6-7.3,2.7l-0.2-0.2C272.3,117,272.3,116.7,272.6,116.4z"/>
		<path fill="#FDFDF9" d="M283.7,113.8c0.9,1.3,1.8,2.7,3.2,3.7l0,0c-0.5,0.7-1.3,1.4-1.9,0.6c-1-1.4-2.9-1.5-3.9-2.8
			c-0.3-0.6-0.2-1.2,0.3-1.7C282.2,113,282.9,113.3,283.7,113.8z"/>
		<path fill="#FDFDF9" d="M283.6,120.4c-1.6,0.5-3,1.1-4.1,2.3c-0.3,0.4-0.8,0.4-1.2,0.1c-0.4-0.3-0.4-0.8-0.3-1.2
			C278.5,119.9,282.1,119,283.6,120.4z"/>
		<path fill="#634789" d="M280,162.4c0-0.2,0-0.3,0-0.5c1.4-2.8,4.6-2.8,6.9-4.2C285.5,160.5,282.8,161.5,280,162.4z"/>
		<path fill="#FDFEF7" d="M300.1,157.7c-0.1,1.2-0.2,2.3-1.6,2.4c-0.9,0.1-1.3-0.5-1.2-1.3c0.1-1.3,0.7-2.5,2.1-2.6
			C300.2,156.1,300,157.2,300.1,157.7z"/>
		<path fill="#FBFDF6" d="M286.9,117.5c1.2-1.1,2.4-2.3,3.6-3.4c0.4-0.4,0.8-0.8,1.3-0.3c0.5,0.4,0.3,1-0.1,1.4
			C290.5,116.6,289.2,118.1,286.9,117.5C286.9,117.5,286.9,117.5,286.9,117.5z"/>
		<path fill="#FDFDF8" d="M299.1,138.6c1.2-0.7,1.6,0.4,2.1,1.1c-0.2,1.1,0.1,3-1.6,2.5C297.9,141.7,298.5,140,299.1,138.6z"/>
		<path fill="#FDFEF9" d="M282.1,84.9c0.8,0.4,2.2,0.1,2.2,1.4c0,1.2-1.1,1.4-2.1,1.5c-1.8,0.2-0.8-1.3-1.2-2
			C280.7,85,281.6,84.9,282.1,84.9z"/>
		<path fill="#FCFDF7" d="M286.9,80.3c0.2,0,0.3,0.1,0.5,0.2c-0.1,0.9,0.7,2.1-0.5,2.5c-1.2,0.4-2.3-0.7-3.3-1.2
			c-0.9-0.4,0-1,0.6-1.2C285.1,80.5,286,80.4,286.9,80.3z"/>
		<path fill="#FCFDF7" d="M286.3,89.7c-0.1,0.9-0.2,1.8-1.4,1.9c-0.6,0-1-0.6-0.7-1.1c0.4-0.8,0.2-2.1,1.4-2.2
			C286.3,88.2,286.3,89.1,286.3,89.7z"/>
		<path fill="#FBFDF8" d="M274,165.6c1.4-1,2.5-1.3,3.9-0.3C276.7,166.3,275.6,166.3,274,165.6z"/>
		<path fill="#6A518C" d="M281.1,91.5c-0.5-0.5-1-1-1-1.7c1.7,0.8,3.1,2,3.8,3.8C282.4,93.6,281.9,92.4,281.1,91.5z"/>
		<path fill="#FBFDF5" d="M285.6,112.8c-0.5-0.1-0.7-0.5-0.6-1c0-0.5,0.3-1.1,0.8-1.1c0.6,0,0.5,0.6,0.5,1
			C286.3,112.2,286.3,112.8,285.6,112.8z"/>
		<path fill="#FCFCF6" d="M279,86.9c-1.1,0.6-1.9,0-3.2-0.4C277.1,86.2,278,86.1,279,86.9z"/>
		<path fill="#FDFDF9" d="M283.7,128.6c0.6-0.9,1.4-1.3,2.5-0.4C285.5,129.1,284.6,128.7,283.7,128.6L283.7,128.6z"/>
		<path fill="#F8F1FC" d="M283.7,113.8c-0.7,0-1.4,0-2.1,0.1c-0.1-0.1-0.1-0.2-0.2-0.3c0.1-0.7,0.7-1,1.2-1.3c0,0,0,0,0,0
			c0.2,0,0.3-0.1,0.5-0.1C283.3,112.6,283.5,113.2,283.7,113.8z"/>
		<path fill="#EEE8F2" d="M283.2,121.7c-0.1,0.1-0.1,0.3-0.2,0.4c0,0.2,0,0.5,0.1,0.7c0.1,0.1,0.2,0.3,0.3,0.4
			c-0.7,0.1-1.6,0.3-1.7-0.6C281.6,121.6,282.5,121.7,283.2,121.7z"/>
		<path fill="#FCFBF4" d="M295.9,163c0.2-0.2,0.4-0.4,0.5-0.5c0.4,0.1,1.1,0.2,0.9,0.6C296.9,163.9,296.4,163.3,295.9,163z"/>
		<path fill="#67449A" d="M269.5,87.4c0-0.2,0-0.3-0.1-0.5c1.1-0.1,2.2-0.2,3.2,0.3c-0.1,0.1-0.2,0.1-0.3,0.2
			C271.4,87.6,270.4,87.7,269.5,87.4z"/>
		<path fill="#F8F1FC" d="M281.7,113.8c-0.2,0.5-0.4,1-0.6,1.5c-0.4-0.2-0.7-0.4-1.1-0.5c0-0.1,0.1-0.2,0.1-0.4
			c0.3-0.5,0.8-0.8,1.4-0.8C281.5,113.7,281.7,113.8,281.7,113.8z"/>
		<path fill="#F5ECF9" d="M289.5,81.6c0.8,0.2,1.4,0.7,1.8,1.4C290.4,83,289.8,82.6,289.5,81.6z"/>
		<path fill="#F8F1FC" d="M285.6,107.4c0.2-0.9,0.5-1.8,0.7-2.7C286.4,105.6,286.5,106.6,285.6,107.4z"/>
		<path fill="#674096" d="M292.2,119.6c-0.1,1.3-0.8,1.9-2,1.7c-0.6-0.1-0.5-0.9-0.2-1.3C290.5,119.1,291.2,118.6,292.2,119.6
			C292.2,119.6,292.2,119.6,292.2,119.6z"/>
		<path fill="#62459C" d="M286,122.7c0.6-0.8,1.2-0.6,1.8-0.6C287.3,123.2,286.7,122.6,286,122.7z"/>
		<path fill="#56456F" d="M283.1,122.8c-0.3-0.1-0.6-0.2-1-0.3c0.3-0.1,0.6-0.3,0.9-0.4c0.3,0.1,0.6,0.2,0.9,0.3
			C283.6,122.6,283.4,122.7,283.1,122.8z"/>
		<path fill="#644192" d="M244.6,163c0-6,0-12,0-18c0-1.2,0-2.5,0-3.7c0.6-1,0.1-2.1,0.3-3.1c0.1-0.5-0.2-1.2,0.6-1.2
			c0.6,0,0.9,0.5,1.1,1c0.4,1.2,0.2,2.4,0.3,3.7c0.1,0.9,0.1,1.9,1.2,2.1c1,0.2,1.7-0.4,2.2-1.2c0.6-0.9,0.9-1.9,0.9-3
			c0-2.2,0.9-3.3,3.3-3c0.9,0.1,1.7,0,2.4,0c-1.9,0.1-4-0.1-6.1,0.5c-2.1,0.5-4.4,0.4-6.3-1.1c0-0.4,0-0.7,0-1.1
			c0.7-1,1.7-1.1,2.8-1.1c5.5,0.1,11-0.4,16.5,0.6c-1.1-0.6-3.1,0.6-3.4-1.7c5.9,0.1,11.9,0,17.8,0.5c1.4,0.1,2.4-1.4,3.9-1
			c0.4,0,0.8,0.1,1,0.5c-0.4,0.2-0.8,0.5-1.1,0.7c-0.6,0.5-1.6,0.8-1.1,1.8c0.5,0.9,1.4,1,2.3,0.6c0.5-0.2,1-0.5,1.5,0.2
			c-1.3,1.5-2.9,1.5-4.4,0.6c-1.8-1.1-2.5-0.3-2.9,1.4c-0.2,0.9-0.6,1.9-0.5,2.8c0.2,2.6-0.7,3.6-3.4,3.5c-3.6-0.1-5.1,1.4-5,4.9
			c0.1,2.8-0.9,3.7-3.6,3.6c-3.4-0.1-4.8,1.4-4.9,4.8c-0.1,3.8-0.2,3.4-4.1,4.3C252,162.9,248.3,163,244.6,163z"/>
		<path fill="#634096" d="M288.3,151.2c-0.6-0.8-0.8-1.5-0.5-2c1.3-2.4,0.1-4.6-0.5-6.8c-0.1-0.6-1.1-1.3,0.1-1.7
			c0.8-0.3,1.2,0.6,1.5,1.2c1.2,2.2,0.5,4.5,0.1,6.7C288.9,149.4,288.6,150.1,288.3,151.2z"/>
		<path fill="#643E99" d="M287.3,155c-0.1,0.4-0.3,0.5-0.6,0.4c-0.1-0.1-0.2-0.3-0.2-0.4c0.1-0.2,0.3-0.3,0.4-0.5
			C287.1,154.7,287.2,154.9,287.3,155z"/>
		<path fill="#684298" d="M244.6,114.8c0-6.7,0-13.4,0-20.1c0.9-1,2.1-0.8,3.2-0.8c4.7,0,9.3,0,14,0c2.6,0,5.1,0,7.5-1.2
			c1.3,0.4,2.9-0.6,3.9,0.9c-3.4,1.3-3.7,4.2-3.7,7.3c0,1.7-0.8,2.2-2.4,2.3c-5.7,0.2-5.8,0.3-6,5.8c-0.1,1.9-0.8,2.7-2.7,2.7
			c-3.1-0.1-6.2,0-9.4,0c0,0.3,0,0.7,0,1c3.9,0,7.9,0,11.8,0c-1.7,1.4-3.5,1.6-5.4,1.6C251.7,114.4,248.1,114,244.6,114.8z"/>
		<path fill="#68419C" d="M273.1,93.7c-1.2,0-2.5,0-3.7,0c-0.7,0.5-1.5,0.5-2.3,0.5c-6.9,0-13.7,0-20.6,0c-0.7,0-1.4,0-2-0.5
			c0-0.7,0-1.4,0-2.1c10,0,20,0,30,0c1.4,0,2.8-0.2,3.9,1.1C276.9,94.4,274.9,93.4,273.1,93.7z"/>
		<path fill="#634391" d="M272.6,116.4c0,0.3-0.1,0.6-0.1,1c-9.3,1.2-18.6,0.4-27.9,0.6c0-0.2,0-0.3,0-0.5c4.6,0,9.1-0.1,13.7,0
			C263.1,117.7,267.8,117,272.6,116.4z"/>
		<path fill="#69429E" d="M282.8,99.9c-0.7-1.4-0.9-2.6-0.1-3.8C282.8,97.3,284,98.4,282.8,99.9z"/>
		<path fill="#695088" d="M281.5,113.7c-0.5,0.3-1,0.5-1.4,0.8c0.3-0.6,0.7-1.2,1-1.7c0.5-0.2,1-0.4,1.6-0.5
			C282.2,112.7,281.9,113.2,281.5,113.7z"/>
		<path fill="#68419C" d="M279,92.6c0.6-0.6,1.3-0.9,2.1-1C280.6,92.5,280.1,93.2,279,92.6z"/>
		<path fill="#67449A" d="M244.6,89.4c0.2-1.8,1.6-1.6,2.8-1.6c7.4,0,14.7,0,22.1,0c1,2.2,3.1,0.1,4.4,1.4
			C264.1,89.2,254.3,90.8,244.6,89.4z"/>
		<path fill="#5A3E7E" d="M269.5,87.4c0.9,0,1.9,0,2.8,0.1c-0.9,0.6-1.9,0.3-2.9,0.4C269.4,87.7,269.5,87.5,269.5,87.4z"/>
		<path fill="#654195" d="M244.6,136c5.4,0,10.9,0,16.3,0c0,0.3,0,0.6,0,0.9c-2,0.8-4.1,0.4-6.1,0.3c-1.7,0-2.3,0.4-2.3,2.2
			c0,2.4-0.5,4.6-3.1,5.5c-2.5,0.9-3.5,0.3-3.7-2.3c-0.1-1.6,0-3.1,0-5.3c-0.8,1.6-0.2,2.9-1.1,3.8
			C244.6,139.5,244.6,137.8,244.6,136z"/>
		<path fill="#634196" d="M260.4,132.8c2.6,1.6,5.6,0.7,8.3,1.2c0,0.3,0,0.6,0,0.9c-8.1,0-16.1,0-24.2,0c-0.1-1.8,1-2.1,2.5-2.1
			C251.5,132.9,256,132.8,260.4,132.8z"/>
		<path fill="#664197" d="M265.2,130.2c0.9,0,1.8,0,2.7,0c0.9,0.4,1.7,0.4,2.6,0c0.4,0,0.7,0,1.1,0c0.8,0.3,1.6,0.7,2.5,1.1
			c-0.6,0.7-1.4,0.5-2,0.5c-8.2,0-16.3,0-24.5,0c-1.1,0-2.4,0.3-3-1c4-0.6,8-0.1,12-0.3C259.4,130.3,262.3,130.7,265.2,130.2z"/>
		<path fill="#67469C" d="M265.2,130.2c-0.9,0.6-2,0.5-3,0.5c-5.9,0-11.7,0-17.6,0c0-0.2,0-0.3,0-0.5
			C251.4,130.2,258.3,130.2,265.2,130.2z"/>
		<path fill="#664395" d="M244.6,93.7c8.3,0,16.6,0,24.9,0c-0.8,1.2-2.1,1.1-3.3,1.1c-7.2,0-14.4,0-21.5,0
			C244.6,94.4,244.6,94,244.6,93.7z"/>
		<path fill="#67469C" d="M270.5,130.2c-0.9,0.6-1.7,0.6-2.6,0C268.7,130.2,269.6,130.2,270.5,130.2z"/>
	</g>
</g>
<g id="Calque_2" display="none">
	<g display="inline">
		<path fill="#1F00FF" d="M262.3,22.2l17.4,197.9l78.6,26.1l78.5-26.1l17.5-197.9H262.3z M418.9,62.2l-2.4,23.7l-57.6,24.7l-0.2,0.1
			h55.8l-6.4,73.3l-49.1,14.4l-49.4-14.6l-3.2-36.9h24.5l1.6,19.1l26.3,6.6l27.3-7.7l1.9-30.8l-83.1-0.3v-0.1l-0.1,0.1l-1.8-23.2
			l56-23.3l3.3-1.3h-61.5l-2.9-23.7H418.9z"/>
		<polygon fill="#4242FC" points="358.3,22 358.3,62 418.9,62 416.5,85.7 358.8,110.3 358.7,110.4 414.4,110.4 408,183.7 358.9,198 
			358.3,197.8 358.3,246 436.9,219.9 454.3,22 		"/>
		<polygon fill="#4242FC" points="358.3,85.7 358.3,87.2 358.9,87 362.1,85.7 		"/>
		<polygon fill="#4242FC" points="358.3,133.7 358.3,172.2 358.7,172.3 386,164.6 387.9,133.8 		"/>
	</g>
</g>
<g id="Calque_1" display="none">
	<path display="inline" fill="#FFD400" d="M70,22l17.5,197.9l78.3,26.1l78.8-26.1L262,22H70z M224.1,85.9h-91.9l2.1,24.7h87.8
		l-6.8,74.2l-48.9,13.5v0.1h-0.6l-49.4-13.6l-3-37.9h23.9L139,166l26.8,7.3l26.8-7.3l3-31.1h-83.4l-6.4-72.8h120.6L224.1,85.9z"/>
</g>
</svg>
