<?xml version="1.0" encoding="utf-8"?>
<!-- Generator: Adobe Illustrator 18.0.0, SVG Export Plug-In . SVG Version: 6.00 Build 0)  -->
<!DOCTYPE svg PUBLIC "-//W3C//DTD SVG 1.1//EN" "http://www.w3.org/Graphics/SVG/1.1/DTD/svg11.dtd">
<svg version="1.1" xmlns="http://www.w3.org/2000/svg" xmlns:xlink="http://www.w3.org/1999/xlink" x="0px" y="0px"
	 viewBox="149.3 10 229.3 228" enable-background="new 149.3 10 229.3 228" xml:space="preserve">
<g id="Calque_3">
	<path fill="#FFFFFF" d="M364,236H164.7c-6.6,0-12-5.4-12-12V24.7c0-6.6,5.4-12,12-12H364c6.6,0,12,5.4,12,12V224
		C376,230.6,370.6,236,364,236z"/>
	
		<text transform="matrix(1.3329 0 0 1 192.5203 189.4273)" display="none" fill="#FFFFFF" font-family="'ArialMT'" font-size="171.6143">B</text>
	<path fill="#5CCCB2" d="M209,153.9c0.9-6.4,1.8-12.8,2.7-19.2c2-14.2,4.1-28.4,6.1-42.6c0.4-2.9,0.8-5.9,1.2-8.8
		c0.2-1.5,0.9-2.7,2-3.8c12.9-12.9,25.9-25.7,38.7-38.7c1.5-1.6,2.3-1.3,3.7,0.1c16.3,16.4,32.7,32.8,49.1,49.1
		c1.5,1.5,1.3,2.3-0.1,3.7c-9.4,9.2-18.6,18.6-28,27.8c-1.5,1.4-1.5,2.2,0,3.7c12.8,12.7,25.6,25.6,38.4,38.3
		c1.6,1.6,1.6,2.3-0.3,3.5c-19.7,13-39.3,26.1-58.9,39.2c-1.6,1-2.5,1.2-3.9-0.3c-16.4-16.5-32.8-32.9-49.3-49.4
		C209.8,155.8,208.7,155.2,209,153.9z"/>
</g>
<g id="Calque_2" display="none">
	<g display="inline">
		<path fill="#1F00FF" d="M262.3,22.2l17.4,197.9l78.6,26.1l78.5-26.1l17.5-197.9H262.3z M418.9,62.2l-2.4,23.7l-57.6,24.7l-0.2,0.1
			h55.8l-6.4,73.3l-49.1,14.4l-49.4-14.6l-3.2-36.9h24.5l1.6,19.1l26.3,6.6l27.3-7.7l1.9-30.8l-83.1-0.3v-0.1l-0.1,0.1l-1.8-23.2
			l56-23.3l3.3-1.3h-61.5l-2.9-23.7H418.9z"/>
		<polygon fill="#4242FC" points="358.3,22 358.3,62 418.9,62 416.5,85.7 358.8,110.3 358.7,110.4 414.4,110.4 408,183.7 358.9,198 
			358.3,197.8 358.3,246 436.9,219.9 454.3,22 		"/>
		<polygon fill="#4242FC" points="358.3,85.7 358.3,87.2 358.9,87 362.1,85.7 		"/>
		<polygon fill="#4242FC" points="358.3,133.7 358.3,172.2 358.7,172.3 386,164.6 387.9,133.8 		"/>
	</g>
</g>
<g id="Calque_1" display="none">
	<path display="inline" fill="#FFD400" d="M70,22l17.5,197.9l78.3,26.1l78.8-26.1L262,22H70z M224.1,85.9h-91.9l2.1,24.7h87.8
		l-6.8,74.2l-48.9,13.5v0.1h-0.6l-49.4-13.6l-3-37.9h23.9L139,166l26.8,7.3l26.8-7.3l3-31.1h-83.4l-6.4-72.8h120.6L224.1,85.9z"/>
</g>
</svg>
