<?xml version="1.0" encoding="utf-8"?>
<!-- Generator: Adobe Illustrator 18.0.0, SVG Export Plug-In . SVG Version: 6.00 Build 0)  -->
<!DOCTYPE svg PUBLIC "-//W3C//DTD SVG 1.1//EN" "http://www.w3.org/Graphics/SVG/1.1/DTD/svg11.dtd">
<svg version="1.1" id="Calque_1" xmlns="http://www.w3.org/2000/svg" xmlns:xlink="http://www.w3.org/1999/xlink" x="0px" y="0px"
	 viewBox="139 10 234 234" enable-background="new 139 10 234 234" xml:space="preserve">
<path fill="#EDE603" d="M344,16H168c-13.3,0-24,10.8-24,24v176c0,13.3,10.8,24,24,24h176c13.3,0,24-10.8,24-24V40
	C368,26.8,357.3,16,344,16z M265.9,190.7c0,21.8-12.8,31.8-31.4,31.8c-16.8,0-26.6-8.7-31.6-19.3l17.1-10.4
	c3.3,5.9,6.3,10.8,13.6,10.8c6.9,0,11.3-2.7,11.3-13.3v-71.5h21.1C265.9,118.8,265.9,190.7,265.9,190.7z M315.7,222.4
	c-19.6,0-32.2-9.3-38.4-21.5l17.1-9.9c4.5,7.4,10.4,12.8,20.8,12.8c8.7,0,14.3-4.4,14.3-10.4c0-7.2-5.7-9.8-15.3-14l-5.3-2.3
	c-15.2-6.4-25.3-14.6-25.3-31.8c0-15.8,12-27.8,30.8-27.8c13.4,0,23,4.7,29.9,16.9L328,145c-3.6-6.4-7.5-9-13.5-9
	c-6.2,0-10.1,3.9-10.1,9c0,6.3,3.9,8.9,12.9,12.8l5.3,2.3c17.9,7.6,28,15.5,28,33.1C350.5,212,335.6,222.4,315.7,222.4L315.7,222.4z
	"/>
</svg>
