<?xml version="1.0" encoding="utf-8"?>
<!-- Generator: Adobe Illustrator 18.0.0, SVG Export Plug-In . SVG Version: 6.00 Build 0)  -->
<!DOCTYPE svg PUBLIC "-//W3C//DTD SVG 1.1//EN" "http://www.w3.org/Graphics/SVG/1.1/DTD/svg11.dtd">
<svg version="1.1" xmlns="http://www.w3.org/2000/svg" xmlns:xlink="http://www.w3.org/1999/xlink" x="0px" y="0px"
	 viewBox="0 0 128 128" enable-background="new 0 0 128 128" xml:space="preserve">
<g id="Polygone_1_xA0_Image_1_">
</g>
<g id="Polygone_1_copie_xA0_Image_1_">
	<g>
		<g>
			<path fill="#00695C" d="M39,14.9c2,0.5,3.3,1.7,2.8,3.9c-0.3,1.3-1,2.4-1.6,3.6c-5.8,12-11.5,24-17.6,35.8
				c-1.8,3.5-1.6,6.3,0.1,9.7c6,11.9,11.7,23.9,17.5,35.8c0.6,1.3,1.3,2.7,1.6,4.2c0.3,1.5-0.8,2.4-2.1,3c-1.5,0.6-2.1-0.4-2.6-1.5
				c-7.2-14.8-14.4-29.6-21.7-44.4c-0.8-1.6-0.5-3.2,0.3-4.8c7-14.3,14-28.7,21-43C37.3,16.3,37.5,15,39,14.9z"/>
		</g>
	</g>
	<g>
		<g>
			<path fill="#00695C" d="M83.7,14.9c-2,0.5-3.3,1.7-2.8,3.9c0.3,1.3,1,2.4,1.6,3.6c5.8,12,11.5,24,17.6,35.8
				c1.8,3.5,1.6,6.3-0.1,9.7c-6,11.9-11.7,23.9-17.5,35.8c-0.6,1.3-1.3,2.7-1.6,4.2c-0.3,1.5,0.8,2.4,2.1,3c1.5,0.6,2.1-0.4,2.6-1.5
				c7.2-14.8,14.4-29.6,21.7-44.4c0.8-1.6,0.5-3.2-0.3-4.8c-7-14.3-14-28.7-21-43C85.5,16.3,85.3,15,83.7,14.9z"/>
		</g>
	</g>
</g>
<g id="M_1_">
	<g>
		<path fill="#1F282B" d="M70.5,29.1c1.7,0,2.7,1.7,3,5.2c0.9,8.2,1.5,23,2,44.5c0,0.9-0.7,1.5-2,1.9c-1.5,0-2.3-1.1-2.3-3.2
			c0-7.6-0.5-19.9-1.4-36.9c0-0.3-0.2-1.8-0.4-4.7h1.4c-1.6,5.8-3.9,16.3-6.8,31.6c-0.4,3.3-1.2,4.9-2.3,4.9l-0.2,0.1
			c-1.5,0-2.4-1.2-2.7-3.6c-4.4-15.9-7.5-26.5-9.3-31.9h1.4c0,0.2,0,0.5,0,0.8v3.4c0,12,0.3,24.4,1,37.4c-0.3,1.3-1,1.9-2.1,1.9
			c-1.5,0-2.2-1.1-2.2-3.2c-0.6-12.5-0.9-24.5-0.9-35.9v-1.2c0-7,0.4-10.4,1.3-10.4c0.2-0.3,0.7-0.4,1.4-0.4c1.5,0,2.7,1.8,3.7,5.3
			c2.2,6.3,5.1,16.1,8.8,29.4h-1.4c2.6-13.4,4.9-23.7,6.9-31C68,30.5,69.1,29.1,70.5,29.1z"/>
	</g>
</g>
<g id="M">
	<g>
		<g>
			<path fill="#00695C" d="M75.5,42.1c1.7,0,2.7,1.7,3,5.2c0.9,8.2,1.5,23,2,44.5c0,0.9-0.7,1.5-2,1.9c-1.5,0-2.3-1.1-2.3-3.2
				c0-7.6-0.5-19.9-1.4-36.9c0-0.3-0.2-1.8-0.4-4.7h1.4c-1.6,5.8-3.9,16.3-6.8,31.6c-0.4,3.3-1.2,4.9-2.3,4.9l-0.2,0.1
				c-1.5,0-2.4-1.2-2.7-3.6c-4.4-15.9-7.5-26.5-9.3-31.9h1.4c0,0.2,0,0.5,0,0.8v3.4c0,12,0.3,24.4,1,37.4c-0.3,1.3-1,1.9-2.1,1.9
				c-1.5,0-2.2-1.1-2.2-3.2c-0.6-12.5-0.9-24.5-0.9-35.9v-1.2c0-7,0.4-10.4,1.3-10.4c0.2-0.3,0.7-0.4,1.4-0.4c1.5,0,2.7,1.8,3.7,5.3
				c2.2,6.3,5.1,16.1,8.8,29.4h-1.4c2.6-13.4,4.9-23.7,6.9-31C73,43.5,74.1,42.1,75.5,42.1z"/>
		</g>
	</g>
</g>
</svg>
