<?xml version="1.0" encoding="utf-8"?>
<!-- Generator: Adobe Illustrator 18.0.0, SVG Export Plug-In . SVG Version: 6.00 Build 0)  -->
<!DOCTYPE svg PUBLIC "-//W3C//DTD SVG 1.1//EN" "http://www.w3.org/Graphics/SVG/1.1/DTD/svg11.dtd">
<svg version="1.1" xmlns="http://www.w3.org/2000/svg" xmlns:xlink="http://www.w3.org/1999/xlink" x="0px" y="0px"
	 viewBox="41 -60 426 376" enable-background="new 41 -60 426 376" xml:space="preserve">
<g id="Calque_1" display="none">
	<path display="inline" d="M322.5,32.2H284l-28,44.3l-24-44.3h-88L256,224L368,32.2H322.5z M171.8,48.2h26.9l57.3,99.1l57.2-99.1
		h26.9L256,192.3C256,192.3,171.9,48.2,171.8,48.2z"/>
</g>
<g id="Calque_2">
	<g>
		<path fill="#35495E" d="M466-51c-0.3-0.1-0.5-0.2-0.8-0.2c-3.3,1.5-6.8,1.8-10.4,1.8c-20.7-0.1-41.3,0.1-62-0.1
			c-6.9-0.1-11,2.6-14.4,8.4c-32.1,55.5-64.2,111-96.4,166.5c-7.2,12.4-14.6,24.7-21.6,37.1c-2.6,4.6-6,4.6-8.8,0
			c-15.3-26.2-30.4-52.5-45.7-78.7c-24.5-42-48.7-84.2-73.2-126.3c-2.9-5.1-6.9-7.1-12.6-7.1c-21,0.1-42,0-63,0.1
			c-3.6,0-7.1-0.2-10.4-1.8c-0.3,0.1-0.5,0.1-0.8,0.2c0-0.7,0-1.3,0-2c2-2.9,5.1-2.5,8.1-2.5c37.3,0,74.6,0,111.9,0
			c12.3,0,24.6,0.1,37-0.1c4.5-0.1,7.3,1.5,9.6,5.5c12.4,21.5,24.7,43,37.3,64.4c5.1,8.7,7.2,8.7,12.3,0
			c12.6-21.4,25-42.9,37.3-64.4c2.3-4,5.1-5.5,9.6-5.5c49.8,0.1,99.6,0.1,149.4,0.1c2.8,0,5.7-0.2,7.6,2.5C466-52.3,466-51.7,466-51
			z"/>
		<path fill="#41B782" d="M46.8-51.2c1.9-1.4,4.2-1,6.3-1c23.7,0,47.3,0.1,71-0.1c4.7,0,7.1,1.8,9.4,5.6
			c39.4,68.2,79,136.4,118.6,204.6c0.7,1.2,1.4,2.3,2,3.5c1.3,2.3,2.6,2.3,4,0c0.6-1,1.2-2,1.8-3c39.5-68,79-136,118.3-204.2
			c2.8-4.9,5.9-6.6,11.4-6.5c23,0.3,46,0.1,69,0.1c2.3,0,4.7-0.5,6.8,1C396.5,67.4,327.7,186,258.9,304.6c-2.9,5.1-2.9,5.1-5.9,0
			C184.3,186,115.5,67.4,46.8-51.2z"/>
	</g>
</g>
</svg>
